<svg width="765" height="468" viewBox="0 0 765 468" fill="none" xmlns="http://www.w3.org/2000/svg">
<path d="M14.216 171.535C12.7477 171.268 11.1459 170.4 9.41062 168.932C7.67533 167.33 6.07352 165.595 4.6052 163.726C3.27036 161.724 2.40271 160.055 2.00226 158.72C2.00226 158.453 1.80203 158.12 1.40158 157.719C1.13461 157.319 1.00113 157.119 1.00113 157.119C0.467194 156.718 0.133484 154.983 0 151.913C0 148.709 0.200226 145.172 0.600679 141.301C1.00113 137.43 1.46832 134.36 2.00226 132.09C2.66968 129.955 3.67081 127.085 5.00565 123.481C6.34049 119.743 7.4751 116.406 8.40949 113.469L13.8156 101.856L5.80656 99.6537C4.87217 99.3867 4.07126 98.8528 3.40384 98.0519C2.86991 97.251 2.60294 96.5836 2.60294 96.0496C2.60294 94.9817 3.20362 93.4467 4.40497 91.4444C5.60633 89.4422 6.47397 88.441 7.00791 88.441C7.67533 88.5745 8.87669 88.6413 10.612 88.6413C12.4808 88.6413 14.2828 88.5745 16.0181 88.441C17.7534 88.3075 18.8212 88.1741 19.2217 88.0406C19.7556 87.7736 20.2896 87.4399 20.8235 87.0394C21.3574 86.5055 21.7579 85.7713 22.0249 84.837C22.6923 83.3686 23.293 82.234 23.8269 81.4331C24.3608 80.6322 25.095 79.4309 26.0294 77.8291C26.9638 76.0938 27.6979 74.6254 28.2319 73.4241C28.8993 72.2227 29.9004 70.5542 31.2353 68.4184C31.9027 67.484 32.6368 66.3494 33.4377 65.0146C34.2386 63.6797 35.2398 62.5451 36.4411 61.6107C37.6425 60.5429 39.578 59.8087 42.2477 59.4083C45.0508 58.8743 47.4536 59.475 49.4558 61.2103C50.5237 62.5451 51.1244 63.8132 51.2579 65.0146C51.3913 66.2159 50.8574 67.751 49.656 69.6198C48.5882 71.889 47.3201 73.958 45.8518 75.8268C44.5169 77.5621 43.2488 79.5643 42.0475 81.8336C39.9117 84.7702 39.5113 86.4388 40.8461 86.8392C42.1809 87.2397 45.9185 86.9727 52.0588 86.0383C55.9298 85.3709 58.733 85.7714 60.4682 87.2397C62.2035 88.708 63.2047 90.5768 63.4716 92.846C63.8721 96.0496 63.5384 97.9851 62.4705 98.6526C61.4026 99.32 58.3325 99.6537 53.2601 99.6537C50.0565 100.188 47.3201 100.521 45.0509 100.655C42.7816 100.655 41.1131 100.655 40.0452 100.655C38.3099 100.788 37.1753 100.855 36.6414 100.855C36.1074 100.855 35.3065 100.989 34.2386 101.255C33.1708 101.522 32.3699 101.99 31.8359 102.657C31.4355 103.191 30.9683 103.992 30.4343 105.06C29.9004 105.594 29.0995 106.995 28.0316 109.265C26.9638 111.534 25.6289 114.003 24.0271 116.673C22.1583 122.279 20.5565 127.685 19.2217 132.891C18.0203 137.964 16.9525 143.036 16.0181 148.108C15.6176 150.645 15.6844 152.513 16.2183 153.715C16.8857 154.783 18.621 155.45 21.4242 155.717C22.8925 155.85 25.0283 155.85 27.8314 155.717C30.6346 155.45 32.9705 155.05 34.8393 154.516C36.3076 153.848 37.8427 153.181 39.4445 152.513C41.0463 151.712 42.5147 150.912 43.8495 150.111C45.0508 149.443 46.2522 148.776 47.4536 148.108C48.6549 147.307 49.2556 146.907 49.2556 146.907C49.923 145.839 50.8574 146.039 52.0588 147.508C53.3936 148.843 54.328 150.311 54.8619 151.913C54.8619 153.514 54.5282 155.45 53.8608 157.719C53.1934 159.855 50.7239 162.124 46.4524 164.527C40.4456 168.264 34.4389 170.534 28.4321 171.335C22.4253 172.135 17.6866 172.202 14.216 171.535Z" fill="url(#paint0_linear_140_1612)"/>
<path d="M130.558 168.131C127.221 169.733 123.951 170.333 120.747 169.933C117.677 169.399 115.074 167.731 112.938 164.927C110.936 161.991 109.935 157.719 109.935 152.113C109.935 150.645 110.002 148.909 110.135 146.907C110.402 144.771 110.803 142.569 111.337 140.3C111.871 137.897 112.538 135.494 113.339 133.091C113.739 131.89 114.273 130.689 114.941 129.487C115.742 128.286 115.875 127.685 115.341 127.685C114.807 127.685 114.14 128.019 113.339 128.686C112.671 129.354 112.137 129.888 111.737 130.288C108.4 133.225 105.33 136.295 102.527 139.499C99.857 142.569 97.4543 145.639 95.3185 148.709C93.3163 151.646 91.7144 154.382 90.5131 156.918C89.4452 159.455 88.9113 161.59 88.9113 163.326C88.9113 165.328 87.9102 166.729 85.9079 167.53C83.9056 168.331 82.1704 168.264 80.702 167.33C78.1658 165.862 75.8299 163.593 73.6941 160.522C71.6919 157.452 70.8909 153.448 71.2914 148.509C71.6919 142.235 72.2258 136.629 72.8932 131.69C73.5606 126.751 74.6285 121.412 76.0968 115.672C77.6986 109.798 79.7676 102.657 82.3038 94.2476C84.0391 89.5756 85.6409 85.1707 87.1093 81.0327C88.5776 76.7612 89.8457 73.1571 90.9135 70.2205C92.1149 67.2838 92.8491 65.4818 93.116 64.8144C93.7835 64.1469 94.6511 62.5451 95.719 60.0089C96.7868 57.3393 97.7212 54.6696 98.5221 51.9999C99.4565 49.3302 99.9237 47.7284 99.9237 47.1945C99.9237 46.1266 100.124 45.1922 100.524 44.3913C101.058 43.5904 101.526 42.8562 101.926 42.1888C102.727 40.32 103.394 39.0519 103.928 38.3845C104.596 37.5836 105.196 37.1832 105.73 37.1832C106.398 37.1832 107.466 37.5169 108.934 38.1843C110.536 38.8517 112.004 39.7194 113.339 40.7872C114.807 41.7216 115.675 42.7228 115.942 43.7906C116.876 45.6594 117.41 47.5949 117.544 49.5972C117.677 51.466 117.21 53.8019 116.142 56.6051C115.074 59.4083 113.205 63.2793 110.536 68.2182C108.4 72.3562 106.464 76.6277 104.729 81.0327C102.994 85.4376 101.325 90.0428 99.7235 94.8483C99.0561 96.8505 98.1884 99.5202 97.1206 102.857C96.0527 106.061 94.9848 109.398 93.9169 112.869C92.9826 116.206 92.1816 119.209 91.5142 121.879C90.8468 124.548 90.5131 126.284 90.5131 127.085C90.5131 128.019 91.047 128.486 92.1149 128.486C93.1828 128.353 94.2506 127.552 95.3185 126.084C95.8525 125.016 96.7201 124.015 97.9215 123.08C99.1228 122.012 100.191 120.944 101.125 119.877C102.193 118.542 103.461 117.007 104.929 115.271C106.531 113.403 108.2 111.667 109.935 110.065C111.804 108.33 113.472 106.929 114.941 105.861C116.542 104.793 117.877 104.259 118.945 104.259C121.481 104.259 123.617 104.993 125.352 106.461C127.088 107.93 128.556 110.199 129.757 113.269C130.158 113.67 130.558 114.203 130.959 114.871C131.359 115.405 131.626 115.805 131.76 116.072C132.427 116.606 132.761 118.742 132.761 122.479C132.761 126.084 131.693 131.089 129.557 137.496C128.356 142.435 127.622 146.106 127.355 148.509C127.221 150.912 127.688 152.113 128.756 152.113C128.756 152.113 129.424 151.712 130.759 150.912C132.227 150.111 133.762 149.243 135.364 148.309C139.235 145.772 142.038 144.972 143.773 145.906C145.509 146.84 146.376 148.042 146.376 149.51C146.376 150.711 145.909 152.113 144.975 153.715C144.174 155.317 143.773 156.384 143.773 156.918C143.773 156.918 143.773 156.985 143.773 157.119C143.773 157.119 143.773 157.386 143.773 157.919C143.773 158.186 142.906 159.121 141.17 160.723C139.435 162.324 137.499 163.926 135.364 165.528C133.361 166.996 131.76 167.864 130.558 168.131Z" fill="url(#paint1_linear_140_1612)"/>
<path d="M159.569 167.931C158.501 166.863 157.7 165.261 157.166 163.125C156.766 160.99 156.633 158.921 156.766 156.918C156.899 154.783 157.233 153.181 157.767 152.113C157.767 151.045 157.901 150.244 158.168 149.71C158.568 149.043 158.702 148.442 158.568 147.908C158.435 147.374 158.568 146.44 158.968 145.105C159.369 143.77 159.769 142.502 160.17 141.301C161.104 139.165 162.172 136.429 163.373 133.091C164.575 129.621 165.776 126.15 166.978 122.68C168.179 119.076 169.18 116.005 169.981 113.469C170.782 110.8 171.249 109.198 171.382 108.664C171.382 107.062 172.45 106.194 174.586 106.061C176.188 105.527 178.123 106.194 180.393 108.063C182.662 109.932 184.464 111.934 185.799 114.07C186.867 115.138 187.267 116.539 187 118.275C186.733 120.01 185.866 122.479 184.397 125.683C183.863 126.751 183.196 128.553 182.395 131.089C181.728 133.492 181.26 135.494 180.993 137.096C180.459 138.164 179.792 139.699 178.991 141.701C178.324 143.57 177.723 145.372 177.189 147.107C176.922 147.775 176.655 149.043 176.388 150.912C176.121 152.647 175.787 154.449 175.387 156.318C174.987 158.186 174.453 159.655 173.785 160.723C172.584 166.195 170.448 169.399 167.378 170.333C164.441 171.268 161.838 170.467 159.569 167.931ZM181.194 87.6401C179.725 86.5723 178.591 85.3042 177.79 83.8358C177.122 82.234 176.722 80.8324 176.588 79.6311C176.588 78.4297 176.722 77.6956 176.989 77.4286C178.324 75.9603 179.458 74.0248 180.393 71.622C181.461 69.2193 182.595 67.0168 183.796 65.0146C184.063 64.6141 184.397 64.0802 184.798 63.4128C185.332 62.6119 185.866 62.1447 186.399 62.0112C188.001 60.9433 190.204 61.0101 193.007 62.2114C195.944 63.4128 198.079 65.0813 199.414 67.2171C200.615 69.7533 200.949 72.3562 200.415 75.0259C200.015 77.6956 198.613 80.4987 196.211 83.4354C194.208 86.1051 191.672 87.8404 188.602 88.6413C185.532 89.3087 183.062 88.975 181.194 87.6401Z" fill="url(#paint2_linear_140_1612)"/>
<path d="M208.682 164.527C208.148 164.527 206.88 164.06 204.878 163.125C202.876 162.057 201.608 161.257 201.074 160.723C200.139 159.655 199.539 158.52 199.272 157.319C199.005 155.984 198.871 153.448 198.871 149.71C198.871 145.439 199.739 140.633 201.474 135.294C203.21 129.821 206.146 122.546 210.284 113.469L218.493 96.8505C219.161 95.9161 219.762 95.1152 220.296 94.4478C220.829 93.6469 221.43 92.9127 222.098 92.2453C222.365 92.2453 222.698 92.2453 223.099 92.2453C223.633 92.2453 224.033 92.3121 224.3 92.4455C225.501 92.579 227.37 93.3132 229.906 94.648C232.576 95.9829 234.178 97.9851 234.712 100.655C234.712 102.39 234.445 104.459 233.911 106.862C233.377 109.131 231.775 112.134 229.105 115.872C228.038 117.207 226.97 119.142 225.902 121.679C224.967 124.215 224.1 126.617 223.299 128.887C223.165 129.154 222.765 129.821 222.098 130.889C221.564 131.823 221.03 132.824 220.496 133.892C219.962 134.827 219.695 135.427 219.695 135.694L218.894 137.496L227.504 129.087C233.51 123.08 238.583 118.809 242.721 116.272C246.859 113.736 250.329 112.668 253.133 113.069C256.069 113.469 258.405 115.138 260.14 118.074C261.075 119.409 261.742 120.878 262.143 122.479C262.543 123.948 262.81 125.683 262.944 127.685C263.077 129.688 263.01 132.224 262.743 135.294V146.707C265.28 146.039 267.215 145.505 268.55 145.105C269.885 144.571 271.22 144.104 272.554 143.703C273.622 143.436 274.69 143.169 275.758 142.903C276.959 142.636 278.428 142.435 280.163 142.302C280.03 144.037 279.295 146.173 277.961 148.709C276.626 151.245 274.957 153.781 272.955 156.318C271.086 158.854 269.017 160.99 266.748 162.725C264.612 164.46 262.61 165.328 260.741 165.328C259.006 165.328 257.004 164.794 254.734 163.726C252.465 162.525 250.53 160.255 248.928 156.918C248.394 155.183 247.86 153.181 247.326 150.912C246.792 148.642 246.525 146.24 246.525 143.703V134.893C246.525 134.093 246.458 133.559 246.325 133.292C246.325 132.891 246.258 132.691 246.125 132.691C245.591 132.691 243.855 134.093 240.919 136.896C238.116 139.699 235.246 142.636 232.309 145.706C226.169 152.113 221.03 156.852 216.892 159.922C212.887 162.992 210.151 164.527 208.682 164.527Z" fill="url(#paint3_linear_140_1612)"/>
<path d="M295.778 171.935C294.71 171.535 293.308 170.467 291.573 168.732C289.838 166.863 288.302 164.861 286.968 162.725C285.633 160.456 284.965 158.587 284.965 157.119C285.633 155.65 286.5 153.047 287.568 149.31C288.77 145.572 290.104 141.367 291.573 136.695C292.641 135.227 293.442 133.559 293.976 131.69C294.643 129.688 295.244 127.886 295.778 126.284C296.845 123.881 298.047 121.145 299.382 118.074C300.716 115.004 301.985 111.867 303.186 108.664C304.521 105.46 305.722 102.657 306.79 100.254C308.659 96.2498 310.194 92.7793 311.395 89.8426C312.73 86.7725 313.998 83.7691 315.199 80.8324C316.534 77.8958 317.936 74.6254 319.404 71.0214C321.407 66.8834 323.209 62.8121 324.81 58.8076C326.546 54.6696 328.014 50.9988 329.215 47.7951C330.55 44.5915 331.351 42.3223 331.618 40.9875C331.485 39.9196 331.618 39.1854 332.018 38.785C332.419 38.251 332.953 37.9173 333.62 37.7838C334.288 37.3834 335.356 37.1164 336.824 36.983C338.292 36.8495 339.293 36.7827 339.827 36.7827C341.429 37.0497 343.031 38.3845 344.633 40.7872C346.368 43.0565 347.236 44.992 347.236 46.5938C347.236 48.7295 346.168 52.7341 344.032 58.6074C342.03 64.3472 339.093 71.1548 335.222 79.0304C330.55 89.0417 327.013 96.7838 324.61 102.257C322.341 107.729 320.806 111.601 320.005 113.87C319.204 116.139 318.87 117.607 319.004 118.275C319.004 118.275 319.538 118.074 320.606 117.674C321.673 117.274 323.275 116.339 325.411 114.871C326.879 113.936 328.548 112.735 330.417 111.267C332.285 109.798 334.087 108.464 335.823 107.262C337.692 106.061 339.16 105.327 340.228 105.06C340.895 104.526 341.83 103.858 343.031 103.058C344.232 102.257 345.367 101.522 346.435 100.855C348.971 98.9863 350.973 98.3856 352.442 99.053C353.91 99.7204 355.245 100.855 356.446 102.457C357.914 104.192 358.448 106.061 358.048 108.063C357.781 109.932 355.712 112.401 351.841 115.472C348.904 117.607 345.767 119.676 342.43 121.679C339.093 123.547 336.023 125.216 333.22 126.684C330.55 128.153 328.615 129.354 327.413 130.288C327.413 130.288 328.014 131.156 329.215 132.891C330.417 134.627 331.551 136.295 332.619 137.897C333.687 140.033 335.022 142.769 336.624 146.106C338.225 149.31 339.427 151.579 340.228 152.914C341.696 155.05 343.164 156.451 344.633 157.119C346.235 157.786 348.57 157.586 351.641 156.518C353.643 155.984 355.311 156.051 356.646 156.718C358.115 157.252 359.316 158.186 360.25 159.521C360.784 160.589 361.051 161.657 361.051 162.725C361.051 163.793 360.184 165.061 358.448 166.529C354.711 169.065 351.04 171.201 347.436 172.936C343.965 174.805 340.628 174.672 337.425 172.536C334.621 170.4 331.952 167.997 329.416 165.328C327.013 162.525 324.276 159.121 321.206 155.116C321.206 154.582 320.806 153.448 320.005 151.712C319.204 149.977 318.67 148.976 318.403 148.709C317.869 147.641 317.268 146.707 316.601 145.906C316.067 144.972 315.8 144.504 315.8 144.504C315.4 143.036 314.866 141.835 314.198 140.9C313.664 139.966 312.93 139.432 311.996 139.298C311.462 139.699 310.861 140.366 310.194 141.301C309.526 142.235 308.859 143.37 308.192 144.705C307.391 146.707 306.59 148.709 305.789 150.711C304.988 152.58 304.321 154.649 303.787 156.918C303.253 159.054 302.919 161.657 302.785 164.727C302.919 166.195 302.318 167.797 300.983 169.533C299.649 171.134 297.913 171.935 295.778 171.935Z" fill="url(#paint4_linear_140_1612)"/>
<path d="M237.568 340.325C235.833 340.726 234.098 340.259 232.362 338.924C230.76 337.722 229.626 336.388 228.958 334.919C228.158 332.783 227.624 330.781 227.357 328.912C227.223 326.91 227.09 324.641 226.956 322.105L226.756 315.297L218.547 322.705C214.008 326.977 209.737 330.047 205.732 331.916C201.861 333.651 198.324 334.519 195.12 334.519C193.652 334.252 191.85 333.317 189.714 331.716C187.712 329.98 185.843 328.112 184.108 326.109C182.506 323.974 181.371 322.238 180.704 320.903C179.903 319.035 179.636 316.432 179.903 313.095C180.303 309.758 181.104 306.087 182.306 302.082C183.641 298.078 185.242 294.14 187.111 290.269C189.113 286.398 191.383 283.061 193.919 280.258C198.324 273.583 203.797 269.445 210.337 267.844C216.878 266.108 222.685 266.642 227.757 269.445C230.16 270.647 231.895 271.114 232.963 270.847C234.031 270.58 234.698 269.712 234.965 268.244C235.499 266.108 236.1 264.106 236.767 262.237C237.435 260.368 238.369 257.565 239.57 253.828C242.907 243.683 245.777 235.741 248.18 230.001C250.716 224.261 252.986 219.255 254.988 214.984C256.456 211.914 257.924 209.778 259.393 208.577C260.861 207.375 262.129 206.841 263.197 206.975C264.665 206.975 266.467 207.509 268.603 208.577C270.872 209.644 272.341 211.113 273.008 212.982C273.542 214.183 273.742 215.451 273.609 216.786C273.609 218.121 273.208 219.522 272.407 220.991C270.672 224.194 268.603 228.466 266.2 233.805C263.931 239.011 261.595 244.751 259.193 251.025C256.923 257.298 254.788 263.505 252.785 269.646C250.783 275.786 249.114 281.192 247.78 285.864C246.979 288.801 246.311 292.538 245.777 297.077C245.377 301.615 245.043 306.287 244.776 311.092C244.643 315.764 244.643 319.969 244.776 323.707C244.91 327.311 245.11 329.647 245.377 330.714C246.178 333.384 246.178 335.386 245.377 336.721C244.576 338.056 243.441 338.924 241.973 339.324C240.505 339.858 239.036 340.192 237.568 340.325ZM204.531 316.098C206.4 315.431 208.068 314.63 209.536 313.695C211.005 312.761 212.74 311.56 214.742 310.091C218.747 307.021 221.617 304.351 223.352 302.082C225.221 299.813 226.689 297.01 227.757 293.673C228.424 291.67 228.424 289.935 227.757 288.467C227.223 286.998 226.222 285.597 224.754 284.262C223.285 283.061 221.417 282.594 219.147 282.86C216.878 282.994 214.275 284.396 211.339 287.065C208.135 290.002 205.398 293.406 203.129 297.277C200.86 301.148 198.991 306.687 197.523 313.896C197.256 315.23 197.723 316.165 198.925 316.699C200.126 317.233 201.995 317.032 204.531 316.098Z" fill="url(#paint5_linear_140_1612)"/>
<path d="M263.867 333.117C262.799 332.049 261.998 330.448 261.464 328.312C261.063 326.176 260.93 324.107 261.063 322.105C261.197 319.969 261.531 318.367 262.065 317.299C262.065 316.231 262.198 315.431 262.465 314.897C262.865 314.229 262.999 313.629 262.865 313.095C262.732 312.561 262.865 311.626 263.266 310.291C263.666 308.957 264.067 307.689 264.467 306.487C265.402 304.351 266.47 301.615 267.671 298.278C268.872 294.807 270.074 291.337 271.275 287.866C272.476 284.262 273.477 281.192 274.278 278.656C275.079 275.986 275.546 274.384 275.68 273.85C275.68 272.248 276.748 271.381 278.884 271.247C280.485 270.713 282.421 271.381 284.69 273.25C286.959 275.118 288.761 277.121 290.096 279.256C291.164 280.324 291.564 281.726 291.298 283.461C291.031 285.196 290.163 287.666 288.695 290.87C288.161 291.937 287.493 293.739 286.692 296.276C286.025 298.678 285.558 300.681 285.291 302.282C284.757 303.35 284.089 304.885 283.288 306.888C282.621 308.756 282.02 310.558 281.486 312.294C281.219 312.961 280.953 314.229 280.686 316.098C280.419 317.833 280.085 319.635 279.684 321.504C279.284 323.373 278.75 324.841 278.083 325.909C276.881 331.382 274.746 334.586 271.675 335.52C268.739 336.454 266.136 335.653 263.867 333.117ZM285.491 252.827C284.023 251.759 282.888 250.491 282.087 249.022C281.42 247.42 281.019 246.019 280.886 244.818C280.886 243.616 281.019 242.882 281.286 242.615C282.621 241.147 283.756 239.211 284.69 236.808C285.758 234.406 286.893 232.203 288.094 230.201C288.361 229.801 288.695 229.267 289.095 228.599C289.629 227.798 290.163 227.331 290.697 227.198C292.299 226.13 294.501 226.197 297.304 227.398C300.241 228.599 302.377 230.268 303.712 232.404C304.913 234.94 305.247 237.543 304.713 240.212C304.312 242.882 302.911 245.685 300.508 248.622C298.506 251.292 295.969 253.027 292.899 253.828C289.829 254.495 287.36 254.161 285.491 252.827Z" fill="url(#paint6_linear_140_1612)"/>
<path d="M351.623 360.148C350.823 360.682 348.954 360.281 346.017 358.946C343.214 357.745 340.878 356.076 339.009 353.941C338.075 352.873 337.474 351.738 337.207 350.537C336.94 349.336 337.007 347.066 337.407 343.729C337.941 342.261 338.208 340.659 338.208 338.924C338.342 337.322 338.409 336.254 338.409 335.72C338.409 334.919 338.609 333.05 339.009 330.114C339.543 327.177 340.077 324.107 340.611 320.903C341.145 317.566 341.612 315.03 342.013 313.295C342.013 313.161 342.079 312.828 342.213 312.294C342.346 311.76 342.48 311.293 342.613 310.892C342.88 309.691 343.214 308.089 343.614 306.087C344.148 304.084 344.616 301.615 345.016 298.678C345.683 296.142 346.351 294.14 347.018 292.672C347.686 291.07 348.153 289.401 348.42 287.666C346.818 287.666 344.749 287.799 342.213 288.066C339.81 288.333 337.341 288.734 334.804 289.268C332.268 289.668 330.066 290.069 328.197 290.469C326.462 290.736 325.461 291.003 325.194 291.27C324.66 291.537 324.059 292.471 323.392 294.073C322.858 295.541 322.257 297.544 321.59 300.08C320.922 302.483 320.321 305.286 319.787 308.489C318.186 314.63 317.318 320.97 317.185 327.511C317.051 333.918 317.385 338.657 318.186 341.727C318.987 344.931 318.586 347.8 316.984 350.337C315.516 353.006 313.981 354.675 312.379 355.342C309.843 355.476 307.307 353.273 304.771 348.735C302.234 344.196 300.966 338.657 300.966 332.116C300.432 326.643 300.899 319.702 302.368 311.293C303.836 302.75 306.039 293.205 308.975 282.66C310.043 279.056 311.511 274.785 313.38 269.846C315.249 264.907 317.185 260.035 319.187 255.229C321.323 250.424 323.191 246.419 324.793 243.216C326.395 239.879 327.396 238.01 327.797 237.609C328.597 237.876 328.998 237.276 328.998 235.807C328.998 235.54 329.532 234.539 330.6 232.804C331.668 231.069 332.669 229.2 333.603 227.198C335.338 224.661 337.541 222.059 340.211 219.389C343.014 216.719 345.817 214.316 348.62 212.181C351.557 209.911 354.093 208.376 356.229 207.575C358.231 206.775 360.233 206.374 362.235 206.374C365.572 206.374 368.776 207.442 371.846 209.578C374.916 211.713 377.119 214.517 378.454 217.987C380.723 215.318 383.393 212.982 386.463 210.979C389.533 208.844 391.936 207.108 393.671 205.773C396.608 204.305 399.01 203.304 400.879 202.77C402.748 202.236 405.084 201.969 407.887 201.969C410.423 201.969 412.826 202.77 415.095 204.372C417.498 205.974 419.567 207.576 421.302 209.177C423.171 211.18 424.239 212.514 424.506 213.182C424.773 213.849 424.906 215.117 424.906 216.986C424.639 218.321 423.838 220.256 422.503 222.793C421.169 225.195 419.567 227.732 417.698 230.401C415.963 233.071 414.294 235.407 412.692 237.409C411.224 239.278 410.223 240.212 409.689 240.212C406.619 241.147 405.084 239.545 405.084 235.407C405.084 234.473 404.55 233.605 403.482 232.804C402.548 231.87 402.08 231.402 402.08 231.402C402.08 231.002 402.147 230.268 402.281 229.2C402.548 227.999 402.948 226.931 403.482 225.996C404.149 224.661 404.283 223.327 403.882 221.992C403.615 220.657 402.748 220.19 401.279 220.59C400.879 220.857 400.078 221.458 398.877 222.392C397.809 223.193 396.608 224.128 395.273 225.195C394.071 226.13 393.003 227.131 392.069 228.199C391.135 229.133 390.667 229.801 390.667 230.201C390.667 230.201 390.401 230.802 389.867 232.003C389.333 233.071 388.332 234.473 386.863 236.208C385.929 237.543 385.061 238.877 384.26 240.212C383.593 241.414 383.259 242.148 383.259 242.415C383.259 242.949 383.192 243.549 383.059 244.217C383.059 244.751 382.725 245.018 382.058 245.018C382.058 245.018 381.858 245.618 381.457 246.82C381.057 248.021 380.322 249.556 379.255 251.425C378.721 252.76 378.053 254.161 377.252 255.63C376.451 256.965 375.784 257.899 375.25 258.433H375.45C375.45 258.433 375.117 259.167 374.449 260.635C373.915 262.104 373.315 263.639 372.647 265.241C371.98 266.709 371.646 267.577 371.646 267.844C371.646 268.377 372.447 268.644 374.049 268.644C375.784 268.644 377.786 268.444 380.056 268.044C382.458 267.51 384.727 266.976 386.863 266.442C388.732 265.908 390 265.641 390.667 265.641C391.335 265.641 392.67 265.908 394.672 266.442C395.74 267.109 396.608 268.444 397.275 270.446C398.076 272.315 398.61 274.184 398.877 276.053C399.277 277.788 399.277 278.923 398.877 279.457C398.743 279.991 397.275 280.725 394.472 281.659C391.669 282.594 388.865 283.328 386.062 283.862C383.66 284.396 380.99 284.996 378.053 285.664C375.117 286.331 372.514 286.932 370.244 287.466C368.109 288 367.041 288.467 367.041 288.867C366.507 288.867 366.04 289.201 365.639 289.868C365.239 290.402 365.039 290.87 365.039 291.27C365.039 293.139 364.772 294.54 364.238 295.475C363.971 296.276 363.503 297.744 362.836 299.88C362.169 302.015 361.434 304.418 360.634 307.088C359.966 309.624 359.365 311.96 358.832 314.096C358.431 316.231 358.231 317.7 358.231 318.501C357.43 319.435 356.963 320.636 356.829 322.105C356.696 323.44 356.629 324.641 356.629 325.709C356.095 326.777 355.761 327.778 355.628 328.712C355.494 329.513 355.428 330.181 355.428 330.714C355.428 330.848 355.428 331.115 355.428 331.515C355.428 331.916 355.361 332.316 355.227 332.717C355.094 334.052 354.894 335.787 354.627 337.923C354.493 340.192 354.427 342.394 354.427 344.53L353.826 350.337C353.692 352.072 353.425 353.941 353.025 355.943C352.758 358.079 352.291 359.48 351.623 360.148ZM333.803 274.451C334.337 274.451 335.539 274.318 337.407 274.051C339.41 273.65 341.812 273.183 344.616 272.649C347.419 272.115 350.355 271.648 353.425 271.247L354.627 269.045C356.629 263.439 358.298 258.967 359.632 255.63C360.967 252.159 362.302 249.022 363.637 246.219L364.037 244.417C364.037 244.15 364.304 243.349 364.838 242.014C365.506 240.68 365.839 239.345 365.839 238.01C366.774 233.471 367.508 230.268 368.042 228.399C368.576 226.397 368.576 225.129 368.042 224.595C367.508 224.061 366.04 223.794 363.637 223.794C362.97 223.66 361.902 223.861 360.433 224.394C359.099 224.928 357.83 225.596 356.629 226.397C355.561 227.064 355.027 227.732 355.027 228.399V229.2C354.627 229.066 353.626 229.867 352.024 231.603C350.556 233.338 348.82 235.54 346.818 238.21C344.949 240.88 343.214 243.549 341.612 246.219C340.544 248.488 339.276 251.425 337.808 255.029C336.34 258.633 334.471 263.372 332.201 269.245L330.6 274.051L333.803 274.451Z" fill="url(#paint7_linear_140_1612)"/>
<path d="M422.904 340.125C415.562 340.125 409.889 337.989 405.885 333.718C402.014 329.446 400.078 322.906 400.078 314.096C400.078 309.29 400.946 304.018 402.681 298.278C404.55 292.538 406.953 286.932 409.889 281.459C412.959 275.986 416.296 271.247 419.9 267.243C423.505 263.105 427.109 260.235 430.713 258.633C432.048 257.966 433.449 257.499 434.917 257.232C436.519 256.831 438.054 256.631 439.523 256.631C441.124 256.631 442.86 256.764 444.729 257.031C446.731 257.165 448.6 257.565 450.335 258.233C453.405 259.167 456.075 260.969 458.344 263.639C460.747 266.308 461.948 270.179 461.948 275.252C461.948 276.587 461.814 278.055 461.547 279.657C461.281 281.125 460.813 282.594 460.146 284.062C458.411 288.467 455.741 292.672 452.137 296.676C448.666 300.681 444.995 303.484 441.124 305.086C440.057 305.62 438.989 306.02 437.921 306.287C436.986 306.42 435.985 306.487 434.917 306.487C432.114 306.487 429.578 306.087 427.309 305.286C425.173 304.485 423.171 303.417 421.302 302.082L419.7 300.681L418.699 302.683C417.765 305.219 417.097 307.355 416.697 309.09C416.43 310.825 416.296 312.093 416.296 312.894C416.296 314.496 416.363 316.165 416.497 317.9C416.63 319.502 417.031 320.837 417.698 321.905C418.232 322.572 418.899 323.106 419.7 323.506C420.635 323.907 421.769 324.107 423.104 324.107C423.905 324.107 424.639 324.107 425.307 324.107C426.108 323.974 426.775 323.84 427.309 323.707C429.712 323.173 431.647 322.305 433.115 321.104C434.717 319.769 436.386 318.634 438.121 317.7L438.922 317.299L438.722 316.699C440.991 315.497 442.526 314.763 443.327 314.496C444.128 314.096 444.729 313.762 445.129 313.495C445.663 312.961 446.264 312.694 446.931 312.694C448.8 312.427 450.602 312.961 452.337 314.296C454.206 315.497 455.14 317.032 455.14 318.901C455.14 319.702 454.54 320.97 453.338 322.705C452.27 324.441 450.869 326.176 449.133 327.911C447.532 329.513 445.863 330.781 444.128 331.716C443.727 331.849 443.327 332.049 442.926 332.316C442.526 332.45 442.126 332.65 441.725 332.917H441.925C440.724 334.519 439.523 335.32 438.321 335.32H436.719C436.186 336.254 434.45 337.255 431.514 338.323C428.577 339.524 425.707 340.125 422.904 340.125ZM433.316 291.871C434.517 291.871 435.585 291.67 436.519 291.27C437.587 290.87 438.588 290.402 439.523 289.868C442.726 287.599 444.795 284.663 445.73 281.058C446.664 277.454 446.33 274.718 444.729 272.849C444.462 272.449 444.128 272.182 443.727 272.048C443.327 271.781 442.86 271.648 442.326 271.648C440.857 271.648 439.189 272.115 437.32 273.049C435.585 273.984 433.85 275.319 432.114 277.054C430.379 278.789 428.777 280.858 427.309 283.261L424.706 287.466C424.973 287.332 425.173 287.265 425.307 287.265C425.574 287.132 425.774 287.065 425.907 287.065C427.109 287.065 427.91 287.466 428.31 288.267C428.71 289.067 429.178 289.868 429.712 290.669C430.379 291.47 431.58 291.871 433.316 291.871Z" fill="url(#paint8_linear_140_1612)"/>
<path d="M485.571 332.316C485.171 332.45 484.303 332.383 482.969 332.116C481.767 331.849 480.499 331.515 479.164 331.115C477.963 330.715 477.229 330.381 476.962 330.114C476.428 329.58 475.694 328.645 474.759 327.311C473.825 325.842 473.291 323.907 473.157 321.504C473.157 319.101 474.292 316.231 476.561 312.894C477.229 311.56 478.03 309.557 478.964 306.888C479.898 304.218 480.833 301.415 481.767 298.478C482.835 295.408 483.769 292.672 484.57 290.269C485.505 287.866 486.172 286.198 486.573 285.263C486.84 282.994 486.706 281.392 486.172 280.458C485.772 279.39 484.637 278.789 482.768 278.656C481.433 278.656 480.366 278.189 479.565 277.254C478.897 276.32 478.564 274.651 478.564 272.248C478.831 270.38 479.298 268.778 479.965 267.443C480.766 265.975 481.834 264.773 483.169 263.839C484.504 263.172 486.172 262.704 488.174 262.437C490.31 262.17 492.379 262.104 494.381 262.237C496.384 262.371 497.785 262.838 498.586 263.639C499.521 264.173 500.255 265.374 500.789 267.243C501.456 268.978 501.99 270.78 502.39 272.649C502.791 274.518 503.058 275.919 503.191 276.854C504.526 275.786 505.995 274.318 507.596 272.449C509.332 270.446 511.067 268.578 512.802 266.842C514.938 265.374 517.474 263.906 520.411 262.437C523.347 260.836 525.483 260.035 526.818 260.035C528.286 260.035 530.088 260.769 532.224 262.237C534.36 263.572 535.695 264.773 536.229 265.841C537.563 268.11 538.498 270.513 539.032 273.049C539.699 275.452 539.299 277.588 537.83 279.457C536.496 281.192 534.627 282.927 532.224 284.663C529.821 286.264 526.818 286.732 523.214 286.064C522.413 285.797 521.545 284.796 520.611 283.061C519.81 281.325 519.343 280.057 519.209 279.256C519.209 278.856 518.609 279.256 517.407 280.458C516.34 281.526 515.005 282.86 513.403 284.462C511.935 286.064 510.533 287.532 509.198 288.867C506.929 291.67 504.526 295.475 501.99 300.28C499.454 305.086 496.45 310.892 492.98 317.7C491.378 321.037 490.043 324.241 488.975 327.311C487.907 330.247 486.773 331.916 485.571 332.316Z" fill="url(#paint9_linear_140_1612)"/>
<path d="M555.12 334.719C549.914 332.583 546.31 329.113 544.308 324.307C542.306 319.502 541.772 313.095 542.706 305.086C542.973 300.948 542.84 298.211 542.306 296.876C541.772 295.408 540.771 294.006 539.302 292.672C538.902 292.138 537.968 291.27 536.499 290.069C535.031 288.734 534.364 287.733 534.497 287.065C534.364 286.131 534.564 284.996 535.098 283.661C535.632 282.193 536.099 281.392 536.499 281.259C537.434 280.858 538.368 280.391 539.302 279.857C540.37 279.323 541.171 279.19 541.705 279.457C542.239 279.457 543.04 279.79 544.108 280.458C545.309 281.125 545.91 281.726 545.91 282.26C546.444 283.194 547.245 282.794 548.313 281.058C549.514 279.323 550.782 277.121 552.117 274.451C553.452 272.315 555.12 270.313 557.123 268.444C559.125 266.575 561.127 264.907 563.129 263.439C565.265 261.837 567.067 260.635 568.535 259.834C569.203 259.568 570.471 259.167 572.34 258.633C574.342 258.099 576.411 257.699 578.547 257.432C580.682 257.031 582.284 256.898 583.352 257.031C585.755 257.165 588.291 258.166 590.961 260.035C593.63 261.903 595.699 263.639 597.168 265.241C598.903 266.442 600.038 268.311 600.572 270.847C601.239 273.25 601.506 275.786 601.372 278.456C601.239 281.125 600.705 283.394 599.771 285.263C599.37 286.598 597.969 288.467 595.566 290.87C593.163 293.272 590.494 295.608 587.557 297.877C584.754 300.013 582.351 301.481 580.349 302.282C578.613 302.683 576.544 303.017 574.142 303.284C571.739 303.417 569.47 303.417 567.334 303.284C565.332 303.017 563.93 302.683 563.129 302.282C562.195 301.748 561.394 301.949 560.727 302.883C560.193 303.684 559.725 305.953 559.325 309.691C559.192 311.159 559.192 312.427 559.325 313.495C559.592 314.563 559.859 315.364 560.126 315.898C561.06 317.5 561.995 318.701 562.929 319.502C563.863 320.169 565.599 320.369 568.135 320.103C570.671 319.836 573.207 318.3 575.744 315.497C578.413 312.561 580.816 310.225 582.952 308.489C583.486 307.555 584.62 306.954 586.356 306.687C588.224 306.287 590.427 306.42 592.963 307.088C594.431 308.022 595.099 309.491 594.965 311.493C594.965 313.495 593.897 316.432 591.762 320.303C591.361 321.237 590.227 322.639 588.358 324.507C586.623 326.243 584.687 328.045 582.551 329.914C580.549 331.649 578.88 332.917 577.546 333.718C573.541 335.854 569.603 336.855 565.732 336.721C561.861 336.588 558.324 335.92 555.12 334.719ZM569.937 289.668C571.939 289.134 573.608 288.6 574.943 288.066C576.411 287.532 577.813 286.665 579.147 285.463C580.482 284.262 582.017 282.46 583.753 280.057C584.287 278.589 584.553 277.321 584.553 276.253C584.687 275.185 584.62 274.518 584.353 274.251C583.285 273.183 582.084 272.849 580.749 273.25C579.548 273.517 578.213 274.184 576.745 275.252C575.81 275.652 574.475 276.52 572.74 277.855C571.138 279.056 569.537 280.458 567.935 282.06C566.466 283.528 565.265 284.929 564.331 286.264C563.53 287.466 563.396 288.2 563.93 288.467C563.663 289.001 564.397 289.334 566.133 289.468C568.001 289.601 569.27 289.668 569.937 289.668Z" fill="url(#paint10_linear_140_1612)"/>
<path d="M618.989 329.713C618.455 329.713 617.187 329.246 615.185 328.312C613.183 327.244 611.915 326.443 611.381 325.909C610.446 324.841 609.846 323.707 609.579 322.505C609.312 321.17 609.178 318.634 609.178 314.897C609.178 310.625 610.046 305.82 611.781 300.48C613.516 295.008 616.453 287.733 620.591 278.656L628.8 262.037C629.468 261.103 630.068 260.302 630.602 259.634C631.136 258.833 631.737 258.099 632.404 257.432C632.671 257.432 633.005 257.432 633.406 257.432C633.939 257.432 634.34 257.499 634.607 257.632C635.808 257.765 637.677 258.5 640.213 259.834C642.883 261.169 644.485 263.172 645.019 265.841C645.019 267.577 644.752 269.646 644.218 272.048C643.684 274.317 642.082 277.321 639.412 281.058C638.344 282.393 637.277 284.329 636.209 286.865C635.274 289.401 634.407 291.804 633.606 294.073C633.472 294.34 633.072 295.008 632.404 296.075C631.87 297.01 631.337 298.011 630.803 299.079C630.269 300.013 630.002 300.614 630.002 300.881L629.201 302.683L637.811 294.273C643.817 288.267 648.89 283.995 653.028 281.459C657.166 278.923 660.636 277.855 663.439 278.255C666.376 278.656 668.712 280.324 670.447 283.261C671.382 284.596 672.049 286.064 672.45 287.666C672.85 289.134 673.117 290.87 673.25 292.872C673.384 294.874 673.317 297.41 673.05 300.48V311.893C675.586 311.226 677.522 310.692 678.857 310.291C680.192 309.758 681.526 309.29 682.861 308.89C683.929 308.623 684.997 308.356 686.065 308.089C687.266 307.822 688.735 307.622 690.47 307.488C690.336 309.224 689.602 311.359 688.267 313.896C686.933 316.432 685.264 318.968 683.262 321.504C681.393 324.04 679.324 326.176 677.055 327.911C674.919 329.647 672.917 330.514 671.048 330.514C669.313 330.514 667.31 329.98 665.041 328.912C662.772 327.711 660.836 325.442 659.235 322.105C658.701 320.369 658.167 318.367 657.633 316.098C657.099 313.829 656.832 311.426 656.832 308.89V300.08C656.832 299.279 656.765 298.745 656.632 298.478C656.632 298.078 656.565 297.877 656.431 297.877C655.898 297.877 654.162 299.279 651.226 302.082C648.422 304.885 645.553 307.822 642.616 310.892C636.476 317.299 631.337 322.038 627.199 325.108C623.194 328.178 620.458 329.713 618.989 329.713Z" fill="url(#paint11_linear_140_1612)"/>
<path d="M714.694 336.721C713.226 336.454 711.624 335.587 709.889 334.118C708.153 332.517 706.552 330.781 705.083 328.912C703.748 326.91 702.881 325.242 702.48 323.907C702.48 323.64 702.28 323.306 701.88 322.906C701.613 322.505 701.479 322.305 701.479 322.305C700.945 321.905 700.612 320.169 700.478 317.099C700.478 313.896 700.678 310.358 701.079 306.487C701.479 302.616 701.946 299.546 702.48 297.277C703.148 295.141 704.149 292.271 705.484 288.667C706.819 284.929 707.953 281.592 708.888 278.656L714.294 267.043L706.285 264.84C705.35 264.573 704.549 264.039 703.882 263.238C703.348 262.437 703.081 261.77 703.081 261.236C703.081 260.168 703.682 258.633 704.883 256.631C706.084 254.629 706.952 253.627 707.486 253.627C708.153 253.761 709.355 253.828 711.09 253.828C712.959 253.828 714.761 253.761 716.496 253.627C718.231 253.494 719.299 253.361 719.7 253.227C720.234 252.96 720.768 252.626 721.302 252.226C721.836 251.692 722.236 250.958 722.503 250.023C723.17 248.555 723.771 247.42 724.305 246.62C724.839 245.819 725.573 244.617 726.507 243.016C727.442 241.28 728.176 239.812 728.71 238.611C729.377 237.409 730.379 235.741 731.713 233.605C732.381 232.671 733.115 231.536 733.916 230.201C734.717 228.866 735.718 227.732 736.919 226.797C738.121 225.729 740.056 224.995 742.726 224.595C745.529 224.061 747.932 224.661 749.934 226.397C751.002 227.732 751.602 229 751.736 230.201C751.869 231.402 751.335 232.937 750.134 234.806C749.066 237.075 747.798 239.144 746.33 241.013C744.995 242.749 743.727 244.751 742.526 247.02C740.39 249.957 739.989 251.625 741.324 252.026C742.659 252.426 746.397 252.159 752.537 251.225C756.408 250.557 759.211 250.958 760.946 252.426C762.682 253.894 763.683 255.763 763.95 258.032C764.35 261.236 764.016 263.172 762.949 263.839C761.881 264.506 758.811 264.84 753.738 264.84C750.535 265.374 747.798 265.708 745.529 265.841C743.26 265.841 741.591 265.841 740.523 265.841C738.788 265.975 737.653 266.041 737.119 266.041C736.586 266.041 735.785 266.175 734.717 266.442C733.649 266.709 732.848 267.176 732.314 267.844C731.914 268.377 731.446 269.178 730.912 270.246C730.379 270.78 729.578 272.182 728.51 274.451C727.442 276.72 726.107 279.19 724.505 281.859C722.636 287.466 721.035 292.872 719.7 298.078C718.498 303.15 717.431 308.222 716.496 313.295C716.096 315.831 716.162 317.7 716.696 318.901C717.364 319.969 719.099 320.636 721.902 320.903C723.371 321.037 725.506 321.037 728.309 320.903C731.113 320.636 733.449 320.236 735.317 319.702C736.786 319.035 738.321 318.367 739.923 317.7C741.524 316.899 742.993 316.098 744.328 315.297C745.529 314.63 746.73 313.962 747.932 313.295C749.133 312.494 749.734 312.093 749.734 312.093C750.401 311.026 751.335 311.226 752.537 312.694C753.872 314.029 754.806 315.497 755.34 317.099C755.34 318.701 755.006 320.636 754.339 322.906C753.671 325.041 751.202 327.311 746.931 329.713C740.924 333.451 734.917 335.72 728.91 336.521C722.903 337.322 718.165 337.389 714.694 336.721Z" fill="url(#paint12_linear_140_1612)"/>
<g filter="url(#filter0_di_140_1612)">
<path d="M172.279 421.999C172.279 421.271 172.208 420.545 172.068 419.83V419.83C171.66 417.755 171.845 415.607 172.602 413.633L174.793 407.921C175.522 406.021 176.653 404.301 178.109 402.879V402.879C181.119 399.939 185.284 398.496 189.468 398.943L190.821 399.087H211.059C213.552 399.087 216.026 399.507 218.379 400.327L218.987 400.539C220.6 401.102 222.125 401.895 223.512 402.893V402.893C226.512 405.05 228.771 408.105 229.966 411.601V411.601C230.676 413.678 231 415.879 230.916 418.073L230.527 428.252C230.439 430.558 229.964 432.832 229.12 434.98V434.98C227.649 438.724 225.112 441.953 221.823 444.269L221.583 444.438C219.732 445.741 217.687 446.744 215.523 447.41L213.388 448.067C207.154 449.986 200.513 450.155 194.19 448.557L193.524 448.388L187.949 446.261C186.127 445.565 184.428 444.583 182.916 443.352L182.668 443.15C180.704 441.55 179.124 439.529 178.047 437.236V437.236C177.697 436.491 177.402 435.723 177.164 434.935L176.502 432.743C176.103 431.425 175.471 430.189 174.636 429.094V429.094C173.107 427.09 172.279 424.639 172.279 422.119V421.999Z" fill="url(#paint13_linear_140_1612)" shape-rendering="crispEdges"/>
<path d="M172.279 421.999C172.279 421.271 172.208 420.545 172.068 419.83V419.83C171.66 417.755 171.845 415.607 172.602 413.633L174.793 407.921C175.522 406.021 176.653 404.301 178.109 402.879V402.879C181.119 399.939 185.284 398.496 189.468 398.943L190.821 399.087H211.059C213.552 399.087 216.026 399.507 218.379 400.327L218.987 400.539C220.6 401.102 222.125 401.895 223.512 402.893V402.893C226.512 405.05 228.771 408.105 229.966 411.601V411.601C230.676 413.678 231 415.879 230.916 418.073L230.527 428.252C230.439 430.558 229.964 432.832 229.12 434.98V434.98C227.649 438.724 225.112 441.953 221.823 444.269L221.583 444.438C219.732 445.741 217.687 446.744 215.523 447.41L213.388 448.067C207.154 449.986 200.513 450.155 194.19 448.557L193.524 448.388L187.949 446.261C186.127 445.565 184.428 444.583 182.916 443.352L182.668 443.15C180.704 441.55 179.124 439.529 178.047 437.236V437.236C177.697 436.491 177.402 435.723 177.164 434.935L176.502 432.743C176.103 431.425 175.471 430.189 174.636 429.094V429.094C173.107 427.09 172.279 424.639 172.279 422.119V421.999Z" fill="#F2F2F2" fill-opacity="0.6" shape-rendering="crispEdges"/>
<path d="M172.279 421.999C172.279 421.271 172.208 420.545 172.068 419.83V419.83C171.66 417.755 171.845 415.607 172.602 413.633L174.793 407.921C175.522 406.021 176.653 404.301 178.109 402.879V402.879C181.119 399.939 185.284 398.496 189.468 398.943L190.821 399.087H211.059C213.552 399.087 216.026 399.507 218.379 400.327L218.987 400.539C220.6 401.102 222.125 401.895 223.512 402.893V402.893C226.512 405.05 228.771 408.105 229.966 411.601V411.601C230.676 413.678 231 415.879 230.916 418.073L230.527 428.252C230.439 430.558 229.964 432.832 229.12 434.98V434.98C227.649 438.724 225.112 441.953 221.823 444.269L221.583 444.438C219.732 445.741 217.687 446.744 215.523 447.41L213.388 448.067C207.154 449.986 200.513 450.155 194.19 448.557L193.524 448.388L187.949 446.261C186.127 445.565 184.428 444.583 182.916 443.352L182.668 443.15C180.704 441.55 179.124 439.529 178.047 437.236V437.236C177.697 436.491 177.402 435.723 177.164 434.935L176.502 432.743C176.103 431.425 175.471 430.189 174.636 429.094V429.094C173.107 427.09 172.279 424.639 172.279 422.119V421.999Z" fill="url(#paint14_linear_140_1612)" fill-opacity="0.2" shape-rendering="crispEdges"/>
<path d="M172.279 421.999C172.279 421.271 172.208 420.545 172.068 419.83V419.83C171.66 417.755 171.845 415.607 172.602 413.633L174.793 407.921C175.522 406.021 176.653 404.301 178.109 402.879V402.879C181.119 399.939 185.284 398.496 189.468 398.943L190.821 399.087H211.059C213.552 399.087 216.026 399.507 218.379 400.327L218.987 400.539C220.6 401.102 222.125 401.895 223.512 402.893V402.893C226.512 405.05 228.771 408.105 229.966 411.601V411.601C230.676 413.678 231 415.879 230.916 418.073L230.527 428.252C230.439 430.558 229.964 432.832 229.12 434.98V434.98C227.649 438.724 225.112 441.953 221.823 444.269L221.583 444.438C219.732 445.741 217.687 446.744 215.523 447.41L213.388 448.067C207.154 449.986 200.513 450.155 194.19 448.557L193.524 448.388L187.949 446.261C186.127 445.565 184.428 444.583 182.916 443.352L182.668 443.15C180.704 441.55 179.124 439.529 178.047 437.236V437.236C177.697 436.491 177.402 435.723 177.164 434.935L176.502 432.743C176.103 431.425 175.471 430.189 174.636 429.094V429.094C173.107 427.09 172.279 424.639 172.279 422.119V421.999Z" fill="url(#paint15_radial_140_1612)" fill-opacity="0.3" style="mix-blend-mode:soft-light" shape-rendering="crispEdges"/>
<path d="M172.279 421.999C172.279 421.271 172.208 420.545 172.068 419.83V419.83C171.66 417.755 171.845 415.607 172.602 413.633L174.793 407.921C175.522 406.021 176.653 404.301 178.109 402.879V402.879C181.119 399.939 185.284 398.496 189.468 398.943L190.821 399.087H211.059C213.552 399.087 216.026 399.507 218.379 400.327L218.987 400.539C220.6 401.102 222.125 401.895 223.512 402.893V402.893C226.512 405.05 228.771 408.105 229.966 411.601V411.601C230.676 413.678 231 415.879 230.916 418.073L230.527 428.252C230.439 430.558 229.964 432.832 229.12 434.98V434.98C227.649 438.724 225.112 441.953 221.823 444.269L221.583 444.438C219.732 445.741 217.687 446.744 215.523 447.41L213.388 448.067C207.154 449.986 200.513 450.155 194.19 448.557L193.524 448.388L187.949 446.261C186.127 445.565 184.428 444.583 182.916 443.352L182.668 443.15C180.704 441.55 179.124 439.529 178.047 437.236V437.236C177.697 436.491 177.402 435.723 177.164 434.935L176.502 432.743C176.103 431.425 175.471 430.189 174.636 429.094V429.094C173.107 427.09 172.279 424.639 172.279 422.119V421.999Z" stroke="url(#paint16_linear_140_1612)" stroke-width="2" stroke-linejoin="round" shape-rendering="crispEdges"/>
<path d="M172.279 421.999C172.279 421.271 172.208 420.545 172.068 419.83V419.83C171.66 417.755 171.845 415.607 172.602 413.633L174.793 407.921C175.522 406.021 176.653 404.301 178.109 402.879V402.879C181.119 399.939 185.284 398.496 189.468 398.943L190.821 399.087H211.059C213.552 399.087 216.026 399.507 218.379 400.327L218.987 400.539C220.6 401.102 222.125 401.895 223.512 402.893V402.893C226.512 405.05 228.771 408.105 229.966 411.601V411.601C230.676 413.678 231 415.879 230.916 418.073L230.527 428.252C230.439 430.558 229.964 432.832 229.12 434.98V434.98C227.649 438.724 225.112 441.953 221.823 444.269L221.583 444.438C219.732 445.741 217.687 446.744 215.523 447.41L213.388 448.067C207.154 449.986 200.513 450.155 194.19 448.557L193.524 448.388L187.949 446.261C186.127 445.565 184.428 444.583 182.916 443.352L182.668 443.15C180.704 441.55 179.124 439.529 178.047 437.236V437.236C177.697 436.491 177.402 435.723 177.164 434.935L176.502 432.743C176.103 431.425 175.471 430.189 174.636 429.094V429.094C173.107 427.09 172.279 424.639 172.279 422.119V421.999Z" stroke="#F2F2F2" stroke-opacity="0.6" stroke-width="2" stroke-linejoin="round" shape-rendering="crispEdges"/>
</g>
<g filter="url(#filter1_di_140_1612)">
<path d="M178.24 299.433C178.24 298.089 178.107 296.749 177.844 295.432V295.432C177.079 291.609 177.426 287.646 178.844 284.014L182.916 273.589C184.313 270.011 186.473 266.78 189.245 264.121V264.121C194.865 258.73 202.575 256.089 210.32 256.901L213.047 257.187H251.074C255.73 257.187 260.354 257.958 264.76 259.467L265.987 259.887C268.972 260.91 271.834 262.38 274.412 264.201V264.201C279.989 268.14 284.278 273.785 286.521 280.233V280.233C287.863 284.092 288.471 288.168 288.312 292.251L287.587 310.894C287.42 315.188 286.519 319.422 284.923 323.411L284.339 324.872C281.972 330.79 277.914 335.879 272.671 339.504V339.504C268.005 342.731 262.573 344.677 256.919 345.148L238.621 346.672L227.721 347.424C221.395 347.86 215.048 346.934 209.11 344.709L207.591 344.139C204.213 342.873 201.057 341.08 198.241 338.827L197.688 338.384C194.037 335.463 191.093 331.756 189.074 327.538V327.538C188.413 326.156 187.855 324.727 187.405 323.263L186.171 319.25C185.421 316.813 184.235 314.533 182.671 312.519V312.519C179.799 308.823 178.24 304.275 178.24 299.594V299.433Z" fill="url(#paint17_linear_140_1612)" shape-rendering="crispEdges"/>
<path d="M178.24 299.433C178.24 298.089 178.107 296.749 177.844 295.432V295.432C177.079 291.609 177.426 287.646 178.844 284.014L182.916 273.589C184.313 270.011 186.473 266.78 189.245 264.121V264.121C194.865 258.73 202.575 256.089 210.32 256.901L213.047 257.187H251.074C255.73 257.187 260.354 257.958 264.76 259.467L265.987 259.887C268.972 260.91 271.834 262.38 274.412 264.201V264.201C279.989 268.14 284.278 273.785 286.521 280.233V280.233C287.863 284.092 288.471 288.168 288.312 292.251L287.587 310.894C287.42 315.188 286.519 319.422 284.923 323.411L284.339 324.872C281.972 330.79 277.914 335.879 272.671 339.504V339.504C268.005 342.731 262.573 344.677 256.919 345.148L238.621 346.672L227.721 347.424C221.395 347.86 215.048 346.934 209.11 344.709L207.591 344.139C204.213 342.873 201.057 341.08 198.241 338.827L197.688 338.384C194.037 335.463 191.093 331.756 189.074 327.538V327.538C188.413 326.156 187.855 324.727 187.405 323.263L186.171 319.25C185.421 316.813 184.235 314.533 182.671 312.519V312.519C179.799 308.823 178.24 304.275 178.24 299.594V299.433Z" fill="#F2F2F2" fill-opacity="0.6" shape-rendering="crispEdges"/>
<path d="M178.24 299.433C178.24 298.089 178.107 296.749 177.844 295.432V295.432C177.079 291.609 177.426 287.646 178.844 284.014L182.916 273.589C184.313 270.011 186.473 266.78 189.245 264.121V264.121C194.865 258.73 202.575 256.089 210.32 256.901L213.047 257.187H251.074C255.73 257.187 260.354 257.958 264.76 259.467L265.987 259.887C268.972 260.91 271.834 262.38 274.412 264.201V264.201C279.989 268.14 284.278 273.785 286.521 280.233V280.233C287.863 284.092 288.471 288.168 288.312 292.251L287.587 310.894C287.42 315.188 286.519 319.422 284.923 323.411L284.339 324.872C281.972 330.79 277.914 335.879 272.671 339.504V339.504C268.005 342.731 262.573 344.677 256.919 345.148L238.621 346.672L227.721 347.424C221.395 347.86 215.048 346.934 209.11 344.709L207.591 344.139C204.213 342.873 201.057 341.08 198.241 338.827L197.688 338.384C194.037 335.463 191.093 331.756 189.074 327.538V327.538C188.413 326.156 187.855 324.727 187.405 323.263L186.171 319.25C185.421 316.813 184.235 314.533 182.671 312.519V312.519C179.799 308.823 178.24 304.275 178.24 299.594V299.433Z" fill="url(#paint18_linear_140_1612)" fill-opacity="0.2" shape-rendering="crispEdges"/>
<path d="M178.24 299.433C178.24 298.089 178.107 296.749 177.844 295.432V295.432C177.079 291.609 177.426 287.646 178.844 284.014L182.916 273.589C184.313 270.011 186.473 266.78 189.245 264.121V264.121C194.865 258.73 202.575 256.089 210.32 256.901L213.047 257.187H251.074C255.73 257.187 260.354 257.958 264.76 259.467L265.987 259.887C268.972 260.91 271.834 262.38 274.412 264.201V264.201C279.989 268.14 284.278 273.785 286.521 280.233V280.233C287.863 284.092 288.471 288.168 288.312 292.251L287.587 310.894C287.42 315.188 286.519 319.422 284.923 323.411L284.339 324.872C281.972 330.79 277.914 335.879 272.671 339.504V339.504C268.005 342.731 262.573 344.677 256.919 345.148L238.621 346.672L227.721 347.424C221.395 347.86 215.048 346.934 209.11 344.709L207.591 344.139C204.213 342.873 201.057 341.08 198.241 338.827L197.688 338.384C194.037 335.463 191.093 331.756 189.074 327.538V327.538C188.413 326.156 187.855 324.727 187.405 323.263L186.171 319.25C185.421 316.813 184.235 314.533 182.671 312.519V312.519C179.799 308.823 178.24 304.275 178.24 299.594V299.433Z" fill="url(#paint19_radial_140_1612)" fill-opacity="0.3" style="mix-blend-mode:soft-light" shape-rendering="crispEdges"/>
<path d="M178.24 299.433C178.24 298.089 178.107 296.749 177.844 295.432V295.432C177.079 291.609 177.426 287.646 178.844 284.014L182.916 273.589C184.313 270.011 186.473 266.78 189.245 264.121V264.121C194.865 258.73 202.575 256.089 210.32 256.901L213.047 257.187H251.074C255.73 257.187 260.354 257.958 264.76 259.467L265.987 259.887C268.972 260.91 271.834 262.38 274.412 264.201V264.201C279.989 268.14 284.278 273.785 286.521 280.233V280.233C287.863 284.092 288.471 288.168 288.312 292.251L287.587 310.894C287.42 315.188 286.519 319.422 284.923 323.411L284.339 324.872C281.972 330.79 277.914 335.879 272.671 339.504V339.504C268.005 342.731 262.573 344.677 256.919 345.148L238.621 346.672L227.721 347.424C221.395 347.86 215.048 346.934 209.11 344.709L207.591 344.139C204.213 342.873 201.057 341.08 198.241 338.827L197.688 338.384C194.037 335.463 191.093 331.756 189.074 327.538V327.538C188.413 326.156 187.855 324.727 187.405 323.263L186.171 319.25C185.421 316.813 184.235 314.533 182.671 312.519V312.519C179.799 308.823 178.24 304.275 178.24 299.594V299.433Z" stroke="url(#paint20_linear_140_1612)" stroke-width="2" stroke-linejoin="round" shape-rendering="crispEdges"/>
<path d="M178.24 299.433C178.24 298.089 178.107 296.749 177.844 295.432V295.432C177.079 291.609 177.426 287.646 178.844 284.014L182.916 273.589C184.313 270.011 186.473 266.78 189.245 264.121V264.121C194.865 258.73 202.575 256.089 210.32 256.901L213.047 257.187H251.074C255.73 257.187 260.354 257.958 264.76 259.467L265.987 259.887C268.972 260.91 271.834 262.38 274.412 264.201V264.201C279.989 268.14 284.278 273.785 286.521 280.233V280.233C287.863 284.092 288.471 288.168 288.312 292.251L287.587 310.894C287.42 315.188 286.519 319.422 284.923 323.411L284.339 324.872C281.972 330.79 277.914 335.879 272.671 339.504V339.504C268.005 342.731 262.573 344.677 256.919 345.148L238.621 346.672L227.721 347.424C221.395 347.86 215.048 346.934 209.11 344.709L207.591 344.139C204.213 342.873 201.057 341.08 198.241 338.827L197.688 338.384C194.037 335.463 191.093 331.756 189.074 327.538V327.538C188.413 326.156 187.855 324.727 187.405 323.263L186.171 319.25C185.421 316.813 184.235 314.533 182.671 312.519V312.519C179.799 308.823 178.24 304.275 178.24 299.594V299.433Z" stroke="#F2F2F2" stroke-opacity="0.6" stroke-width="2" stroke-linejoin="round" shape-rendering="crispEdges"/>
</g>
<g filter="url(#filter2_di_140_1612)">
<path d="M299.008 113.995C299.008 109.514 299.451 105.044 300.33 100.65L302.667 88.9729L309.762 65.0946C311.644 58.758 314.441 52.7298 318.063 47.2002L320.933 42.8192C327.792 32.3477 337.409 23.9727 348.724 18.6172L357.344 14.5372C366.438 10.2327 376.374 8 386.435 8H475.849C483.376 8 490.851 9.24974 497.968 11.6982L509.866 15.7912C515.996 17.8999 521.793 20.8744 527.081 24.6242L533.74 29.3458C545.305 37.5473 554.018 49.1587 558.659 62.5558L561.447 70.6064C564.217 78.6012 565.47 87.0427 565.143 95.4974L563.561 136.331C562.881 153.878 555.44 170.481 542.794 182.666L516.077 208.409C508.111 216.085 498.392 221.701 487.765 224.771L443.981 237.418C439.359 238.753 434.608 239.593 429.809 239.926L399.007 242.059C389.266 242.733 379.495 241.303 370.358 237.864L354.136 231.759C347.401 229.224 341.111 225.637 335.5 221.13L329.421 216.246C321.447 209.841 315.021 201.719 310.621 192.486L309.01 189.107C307.572 186.088 306.358 182.968 305.379 179.771L301.99 168.711C300.013 162.257 299.008 155.543 299.008 148.793V113.995Z" fill="url(#paint21_linear_140_1612)" shape-rendering="crispEdges"/>
<path d="M299.008 113.995C299.008 109.514 299.451 105.044 300.33 100.65L302.667 88.9729L309.762 65.0946C311.644 58.758 314.441 52.7298 318.063 47.2002L320.933 42.8192C327.792 32.3477 337.409 23.9727 348.724 18.6172L357.344 14.5372C366.438 10.2327 376.374 8 386.435 8H475.849C483.376 8 490.851 9.24974 497.968 11.6982L509.866 15.7912C515.996 17.8999 521.793 20.8744 527.081 24.6242L533.74 29.3458C545.305 37.5473 554.018 49.1587 558.659 62.5558L561.447 70.6064C564.217 78.6012 565.47 87.0427 565.143 95.4974L563.561 136.331C562.881 153.878 555.44 170.481 542.794 182.666L516.077 208.409C508.111 216.085 498.392 221.701 487.765 224.771L443.981 237.418C439.359 238.753 434.608 239.593 429.809 239.926L399.007 242.059C389.266 242.733 379.495 241.303 370.358 237.864L354.136 231.759C347.401 229.224 341.111 225.637 335.5 221.13L329.421 216.246C321.447 209.841 315.021 201.719 310.621 192.486L309.01 189.107C307.572 186.088 306.358 182.968 305.379 179.771L301.99 168.711C300.013 162.257 299.008 155.543 299.008 148.793V113.995Z" fill="#F2F2F2" fill-opacity="0.6" shape-rendering="crispEdges"/>
<path d="M299.008 113.995C299.008 109.514 299.451 105.044 300.33 100.65L302.667 88.9729L309.762 65.0946C311.644 58.758 314.441 52.7298 318.063 47.2002L320.933 42.8192C327.792 32.3477 337.409 23.9727 348.724 18.6172L357.344 14.5372C366.438 10.2327 376.374 8 386.435 8H475.849C483.376 8 490.851 9.24974 497.968 11.6982L509.866 15.7912C515.996 17.8999 521.793 20.8744 527.081 24.6242L533.74 29.3458C545.305 37.5473 554.018 49.1587 558.659 62.5558L561.447 70.6064C564.217 78.6012 565.47 87.0427 565.143 95.4974L563.561 136.331C562.881 153.878 555.44 170.481 542.794 182.666L516.077 208.409C508.111 216.085 498.392 221.701 487.765 224.771L443.981 237.418C439.359 238.753 434.608 239.593 429.809 239.926L399.007 242.059C389.266 242.733 379.495 241.303 370.358 237.864L354.136 231.759C347.401 229.224 341.111 225.637 335.5 221.13L329.421 216.246C321.447 209.841 315.021 201.719 310.621 192.486L309.01 189.107C307.572 186.088 306.358 182.968 305.379 179.771L301.99 168.711C300.013 162.257 299.008 155.543 299.008 148.793V113.995Z" fill="url(#paint22_linear_140_1612)" fill-opacity="0.2" shape-rendering="crispEdges"/>
<path d="M299.008 113.995C299.008 109.514 299.451 105.044 300.33 100.65L302.667 88.9729L309.762 65.0946C311.644 58.758 314.441 52.7298 318.063 47.2002L320.933 42.8192C327.792 32.3477 337.409 23.9727 348.724 18.6172L357.344 14.5372C366.438 10.2327 376.374 8 386.435 8H475.849C483.376 8 490.851 9.24974 497.968 11.6982L509.866 15.7912C515.996 17.8999 521.793 20.8744 527.081 24.6242L533.74 29.3458C545.305 37.5473 554.018 49.1587 558.659 62.5558L561.447 70.6064C564.217 78.6012 565.47 87.0427 565.143 95.4974L563.561 136.331C562.881 153.878 555.44 170.481 542.794 182.666L516.077 208.409C508.111 216.085 498.392 221.701 487.765 224.771L443.981 237.418C439.359 238.753 434.608 239.593 429.809 239.926L399.007 242.059C389.266 242.733 379.495 241.303 370.358 237.864L354.136 231.759C347.401 229.224 341.111 225.637 335.5 221.13L329.421 216.246C321.447 209.841 315.021 201.719 310.621 192.486L309.01 189.107C307.572 186.088 306.358 182.968 305.379 179.771L301.99 168.711C300.013 162.257 299.008 155.543 299.008 148.793V113.995Z" fill="url(#paint23_radial_140_1612)" fill-opacity="0.3" style="mix-blend-mode:soft-light" shape-rendering="crispEdges"/>
<path d="M299.008 113.995C299.008 109.514 299.451 105.044 300.33 100.65L302.667 88.9729L309.762 65.0946C311.644 58.758 314.441 52.7298 318.063 47.2002L320.933 42.8192C327.792 32.3477 337.409 23.9727 348.724 18.6172L357.344 14.5372C366.438 10.2327 376.374 8 386.435 8H475.849C483.376 8 490.851 9.24974 497.968 11.6982L509.866 15.7912C515.996 17.8999 521.793 20.8744 527.081 24.6242L533.74 29.3458C545.305 37.5473 554.018 49.1587 558.659 62.5558L561.447 70.6064C564.217 78.6012 565.47 87.0427 565.143 95.4974L563.561 136.331C562.881 153.878 555.44 170.481 542.794 182.666L516.077 208.409C508.111 216.085 498.392 221.701 487.765 224.771L443.981 237.418C439.359 238.753 434.608 239.593 429.809 239.926L399.007 242.059C389.266 242.733 379.495 241.303 370.358 237.864L354.136 231.759C347.401 229.224 341.111 225.637 335.5 221.13L329.421 216.246C321.447 209.841 315.021 201.719 310.621 192.486L309.01 189.107C307.572 186.088 306.358 182.968 305.379 179.771L301.99 168.711C300.013 162.257 299.008 155.543 299.008 148.793V113.995Z" stroke="url(#paint24_linear_140_1612)" stroke-width="2" stroke-linejoin="round" shape-rendering="crispEdges"/>
<path d="M299.008 113.995C299.008 109.514 299.451 105.044 300.33 100.65L302.667 88.9729L309.762 65.0946C311.644 58.758 314.441 52.7298 318.063 47.2002L320.933 42.8192C327.792 32.3477 337.409 23.9727 348.724 18.6172L357.344 14.5372C366.438 10.2327 376.374 8 386.435 8H475.849C483.376 8 490.851 9.24974 497.968 11.6982L509.866 15.7912C515.996 17.8999 521.793 20.8744 527.081 24.6242L533.74 29.3458C545.305 37.5473 554.018 49.1587 558.659 62.5558L561.447 70.6064C564.217 78.6012 565.47 87.0427 565.143 95.4974L563.561 136.331C562.881 153.878 555.44 170.481 542.794 182.666L516.077 208.409C508.111 216.085 498.392 221.701 487.765 224.771L443.981 237.418C439.359 238.753 434.608 239.593 429.809 239.926L399.007 242.059C389.266 242.733 379.495 241.303 370.358 237.864L354.136 231.759C347.401 229.224 341.111 225.637 335.5 221.13L329.421 216.246C321.447 209.841 315.021 201.719 310.621 192.486L309.01 189.107C307.572 186.088 306.358 182.968 305.379 179.771L301.99 168.711C300.013 162.257 299.008 155.543 299.008 148.793V113.995Z" stroke="#F2F2F2" stroke-opacity="0.6" stroke-width="2" stroke-linejoin="round" shape-rendering="crispEdges"/>
</g>
<path opacity="0.8" fill-rule="evenodd" clip-rule="evenodd" d="M231.312 332.817C229.576 333.217 227.841 332.75 226.106 331.415C224.504 330.214 223.369 328.879 222.702 327.411C221.901 325.275 221.367 323.273 221.1 321.404C220.967 319.402 220.833 317.132 220.7 314.596L220.499 307.788L212.29 315.197C207.752 319.468 203.48 322.538 199.476 324.407C195.605 326.143 192.067 327.01 188.864 327.01C188.85 327.008 188.837 327.005 188.824 327.003C188.271 325.788 187.796 324.539 187.404 323.263L186.169 319.25C185.42 316.813 184.234 314.533 182.67 312.519C179.798 308.823 178.239 304.275 178.239 299.594V299.433C178.239 298.089 178.106 296.749 177.843 295.432C177.524 293.84 177.398 292.225 177.462 290.619C178.474 287.97 179.604 285.35 180.855 282.76C182.857 278.889 185.126 275.552 187.662 272.749C192.067 266.075 197.54 261.937 204.081 260.335C210.622 258.6 216.428 259.134 221.5 261.937C223.903 263.138 225.638 263.605 226.706 263.338C227.774 263.071 228.442 262.204 228.709 260.735C229.015 259.509 229.344 258.326 229.695 257.188L248.167 257.188C247.611 258.842 247.065 260.492 246.529 262.137C244.526 268.277 242.858 273.683 241.523 278.355C240.722 281.292 240.055 285.029 239.521 289.568C239.12 294.106 238.787 298.778 238.52 303.584C238.386 308.256 238.386 312.46 238.52 316.198C238.653 319.802 238.853 322.138 239.12 323.206C239.921 325.876 239.921 327.878 239.12 329.213C238.319 330.548 237.185 331.415 235.717 331.816C234.248 332.35 232.78 332.683 231.312 332.817ZM273.484 263.57C273.189 263.59 272.903 263.647 272.627 263.739C270.491 263.872 269.423 264.74 269.423 266.342C269.29 266.876 268.823 268.477 268.022 271.147C267.221 273.683 266.22 276.753 265.018 280.358L261.414 290.769C260.213 294.106 259.145 296.843 258.211 298.979C257.81 300.18 257.41 301.448 257.009 302.783C256.609 304.118 256.475 305.052 256.609 305.586C256.742 306.12 256.609 306.721 256.208 307.388C255.941 307.922 255.808 308.723 255.808 309.791C255.274 310.859 254.94 312.46 254.807 314.596C254.673 316.598 254.807 318.667 255.207 320.803C255.741 322.939 256.542 324.541 257.61 325.609C259.879 328.145 262.482 328.946 265.419 328.011C268.489 327.077 270.625 323.873 271.826 318.4C272.493 317.333 273.027 315.864 273.428 313.995C273.828 312.127 274.162 310.325 274.429 308.589C274.696 306.721 274.963 305.453 275.23 304.785C275.764 303.05 276.364 301.248 277.032 299.379C277.833 297.377 278.5 295.842 279.034 294.774C279.301 293.172 279.768 291.17 280.436 288.767C281.237 286.231 281.904 284.429 282.438 283.361C283.762 280.473 284.597 278.182 284.944 276.487C282.52 271.606 278.879 267.356 274.411 264.201C274.106 263.986 273.797 263.775 273.484 263.57ZM198.274 308.589C200.143 307.922 201.812 307.121 203.28 306.187C204.748 305.252 206.484 304.051 208.486 302.583C212.49 299.512 215.36 296.843 217.096 294.574C218.964 292.304 220.433 289.501 221.5 286.164C222.168 284.162 222.168 282.427 221.5 280.958C220.967 279.49 219.965 278.088 218.497 276.753C217.029 275.552 215.16 275.085 212.891 275.352C210.622 275.485 208.019 276.887 205.082 279.557C201.878 282.493 199.142 285.897 196.873 289.768C194.603 293.639 192.735 299.179 191.266 306.387C190.999 307.722 191.467 308.656 192.668 309.19C193.869 309.724 195.738 309.524 198.274 308.589Z" fill="url(#paint25_linear_140_1612)"/>
<path opacity="0.8" fill-rule="evenodd" clip-rule="evenodd" d="M300.329 100.65C299.45 105.044 299.007 109.514 299.007 113.995V144.506C299.175 144.061 299.35 143.626 299.532 143.202L301.934 137.195C302.602 135.86 303.269 134.726 303.937 133.791C304.604 132.857 305.205 132.19 305.739 131.789C306.673 131.923 307.407 132.457 307.941 133.391C308.609 134.325 309.143 135.527 309.543 136.995L310.344 138.397C311.011 139.198 311.612 140.132 312.146 141.2C312.413 141.467 312.947 142.468 313.748 144.203C314.549 145.938 314.949 147.073 314.949 147.607C318.019 151.612 320.756 155.015 323.158 157.819C325.695 160.488 328.364 162.891 331.167 165.027C334.371 167.162 337.708 167.296 341.179 165.427C344.783 163.692 348.454 161.556 352.191 159.02C353.926 157.552 354.794 156.283 354.794 155.216C354.794 154.148 354.527 153.08 353.993 152.012C353.059 150.677 351.857 149.743 350.389 149.209C349.054 148.541 347.386 148.475 345.383 149.009C342.313 150.076 339.977 150.277 338.376 149.609C336.907 148.942 335.439 147.54 333.971 145.405C333.17 144.07 331.968 141.8 330.367 138.597C328.765 135.26 327.43 132.523 326.362 130.388C325.294 128.786 324.16 127.117 322.958 125.382L321.156 122.779C322.358 121.845 324.293 120.643 326.963 119.175C329.766 117.707 332.836 116.038 336.173 114.169C339.51 112.167 342.647 110.098 345.584 107.962C349.455 104.892 351.524 102.423 351.791 100.554C352.191 98.5516 351.657 96.6829 350.189 94.9476C348.988 93.3458 347.653 92.2112 346.184 91.5437C344.716 90.8763 342.714 91.477 340.178 93.3458C339.11 94.0132 337.975 94.7474 336.774 95.5483C335.572 96.3492 334.638 97.0166 333.971 97.5505C332.903 97.8175 331.434 98.5516 329.566 99.753C327.83 100.954 326.028 102.289 324.16 103.758C322.291 105.226 320.622 106.427 319.154 107.362C317.018 108.83 315.416 109.764 314.348 110.165L312.747 110.765C312.613 110.098 312.947 108.63 313.748 106.36C314.549 104.091 316.084 100.22 318.353 94.7473C320.756 89.2745 324.293 81.5324 328.965 71.5211C332.836 63.6456 335.773 56.8379 337.775 51.0981C339.911 45.2248 340.979 41.2203 340.979 39.0845C340.979 37.4827 340.111 35.5472 338.376 33.278C336.774 30.8753 335.172 29.5404 333.57 29.2734C333.331 29.2734 332.999 29.2868 332.573 29.3135C329.167 32.3486 326.066 35.7272 323.322 39.4034C323.206 39.6893 323.084 39.9834 322.958 40.2859C321.757 43.4895 320.289 47.1603 318.553 51.2983C316.951 55.3028 315.149 59.3741 313.147 63.5121C311.679 67.1162 310.277 70.3865 308.942 73.3232C307.741 76.2598 306.473 79.2632 305.138 82.3333C304.64 83.5501 304.085 84.8586 303.473 86.2588L302.666 88.9729L300.329 100.65ZM375.147 239.466C375.165 239.414 375.183 239.362 375.2 239.311L375.801 237.508C376.468 237.508 376.802 237.242 376.802 236.708C376.935 236.04 377.002 235.439 377.002 234.906C377.002 234.639 377.336 233.904 378.003 232.703C378.804 231.368 379.672 230.033 380.606 228.699C382.074 226.963 383.076 225.562 383.609 224.494L384.41 222.692C384.41 222.291 384.878 221.624 385.812 220.69C386.746 219.622 387.814 218.62 389.016 217.686C390.35 216.618 391.552 215.684 392.62 214.883C393.821 213.949 394.622 213.348 395.022 213.081C396.491 212.68 397.358 213.148 397.625 214.482C398.026 215.817 397.892 217.152 397.225 218.487C396.691 219.421 396.29 220.489 396.023 221.691C395.89 222.759 395.823 223.493 395.823 223.893L397.225 225.295C398.293 226.096 398.827 226.963 398.827 227.898C398.827 232.036 400.362 233.637 403.432 232.703C403.966 232.703 404.967 231.769 406.435 229.9C408.037 227.898 409.706 225.562 411.441 222.892C413.31 220.222 414.911 217.686 416.246 215.283C417.581 212.747 418.382 210.812 418.649 209.477C418.649 207.608 418.516 206.34 418.249 205.673C417.982 205.005 416.914 203.67 415.045 201.668C413.31 200.066 411.241 198.464 408.838 196.863C406.569 195.261 404.166 194.46 401.63 194.46C398.827 194.46 396.491 194.727 394.622 195.261C392.753 195.795 390.35 196.796 387.414 198.264C385.678 199.599 383.276 201.334 380.206 203.47C377.135 205.472 374.466 207.808 372.197 210.478C370.862 207.007 368.659 204.204 365.589 202.068C362.519 199.933 359.315 198.865 355.978 198.865C353.976 198.865 351.974 199.265 349.971 200.066C347.836 200.867 345.3 202.402 342.363 204.671C339.56 206.807 336.757 209.21 333.953 211.88C332.389 213.444 330.985 214.986 329.741 216.504L335.499 221.13C338.069 223.194 340.781 225.065 343.613 226.731C344.386 225.756 345.103 224.877 345.767 224.093C347.369 222.358 348.37 221.557 348.77 221.691V220.89C348.77 220.222 349.304 219.555 350.372 218.887C351.573 218.087 352.841 217.419 354.176 216.885C355.645 216.351 356.712 216.151 357.38 216.285C359.783 216.285 361.251 216.551 361.785 217.085C362.319 217.619 362.319 218.887 361.785 220.89C361.251 222.759 360.517 225.962 359.582 230.501C359.582 231.529 359.384 232.557 358.988 233.585L370.357 237.864C371.936 238.458 373.534 238.992 375.147 239.466Z" fill="url(#paint26_linear_140_1612)"/>
<defs>
<filter id="filter0_di_140_1612" x="153.856" y="372.863" width="92.9732" height="94.6793" filterUnits="userSpaceOnUse" color-interpolation-filters="sRGB">
<feFlood flood-opacity="0" result="BackgroundImageFix"/>
<feColorMatrix in="SourceAlpha" type="matrix" values="0 0 0 0 0 0 0 0 0 0 0 0 0 0 0 0 0 0 127 0" result="hardAlpha"/>
<feOffset dx="3" dy="5"/>
<feGaussianBlur stdDeviation="5.95"/>
<feComposite in2="hardAlpha" operator="out"/>
<feColorMatrix type="matrix" values="0 0 0 0 0 0 0 0 0 0 0 0 0 0 0 0 0 0 0.07 0"/>
<feBlend mode="normal" in2="BackgroundImageFix" result="effect1_dropShadow_140_1612"/>
<feBlend mode="normal" in="SourceGraphic" in2="effect1_dropShadow_140_1612" result="shape"/>
<feColorMatrix in="SourceAlpha" type="matrix" values="0 0 0 0 0 0 0 0 0 0 0 0 0 0 0 0 0 0 127 0" result="hardAlpha"/>
<feOffset dx="-17" dy="-25"/>
<feGaussianBlur stdDeviation="17.3"/>
<feComposite in2="hardAlpha" operator="arithmetic" k2="-1" k3="1"/>
<feColorMatrix type="matrix" values="0 0 0 0 0 0 0 0 0 0 0 0 0 0 0 0 0 0 0.1 0"/>
<feBlend mode="normal" in2="shape" result="effect2_innerShadow_140_1612"/>
</filter>
<filter id="filter1_di_140_1612" x="159.447" y="230.757" width="144.79" height="134.672" filterUnits="userSpaceOnUse" color-interpolation-filters="sRGB">
<feFlood flood-opacity="0" result="BackgroundImageFix"/>
<feColorMatrix in="SourceAlpha" type="matrix" values="0 0 0 0 0 0 0 0 0 0 0 0 0 0 0 0 0 0 127 0" result="hardAlpha"/>
<feOffset dx="3" dy="5"/>
<feGaussianBlur stdDeviation="5.95"/>
<feComposite in2="hardAlpha" operator="out"/>
<feColorMatrix type="matrix" values="0 0 0 0 0 0 0 0 0 0 0 0 0 0 0 0 0 0 0.07 0"/>
<feBlend mode="normal" in2="BackgroundImageFix" result="effect1_dropShadow_140_1612"/>
<feBlend mode="normal" in="SourceGraphic" in2="effect1_dropShadow_140_1612" result="shape"/>
<feColorMatrix in="SourceAlpha" type="matrix" values="0 0 0 0 0 0 0 0 0 0 0 0 0 0 0 0 0 0 127 0" result="hardAlpha"/>
<feOffset dx="-17" dy="-25"/>
<feGaussianBlur stdDeviation="17.3"/>
<feComposite in2="hardAlpha" operator="arithmetic" k2="-1" k3="1"/>
<feColorMatrix type="matrix" values="0 0 0 0 0 0 0 0 0 0 0 0 0 0 0 0 0 0 0.1 0"/>
<feBlend mode="normal" in2="shape" result="effect2_innerShadow_140_1612"/>
</filter>
<filter id="filter2_di_140_1612" x="281.008" y="-18" width="300.086" height="278.121" filterUnits="userSpaceOnUse" color-interpolation-filters="sRGB">
<feFlood flood-opacity="0" result="BackgroundImageFix"/>
<feColorMatrix in="SourceAlpha" type="matrix" values="0 0 0 0 0 0 0 0 0 0 0 0 0 0 0 0 0 0 127 0" result="hardAlpha"/>
<feOffset dx="3" dy="5"/>
<feGaussianBlur stdDeviation="5.95"/>
<feComposite in2="hardAlpha" operator="out"/>
<feColorMatrix type="matrix" values="0 0 0 0 0 0 0 0 0 0 0 0 0 0 0 0 0 0 0.07 0"/>
<feBlend mode="normal" in2="BackgroundImageFix" result="effect1_dropShadow_140_1612"/>
<feBlend mode="normal" in="SourceGraphic" in2="effect1_dropShadow_140_1612" result="shape"/>
<feColorMatrix in="SourceAlpha" type="matrix" values="0 0 0 0 0 0 0 0 0 0 0 0 0 0 0 0 0 0 127 0" result="hardAlpha"/>
<feOffset dx="-17" dy="-25"/>
<feGaussianBlur stdDeviation="17.3"/>
<feComposite in2="hardAlpha" operator="arithmetic" k2="-1" k3="1"/>
<feColorMatrix type="matrix" values="0 0 0 0 0 0 0 0 0 0 0 0 0 0 0 0 0 0 0.1 0"/>
<feBlend mode="normal" in2="shape" result="effect2_innerShadow_140_1612"/>
</filter>
<linearGradient id="paint0_linear_140_1612" x1="785.945" y1="372.979" x2="129.282" y2="-129.672" gradientUnits="userSpaceOnUse">
<stop stop-color="#00A7D5"/>
<stop offset="1" stop-color="#6DDEFF"/>
</linearGradient>
<linearGradient id="paint1_linear_140_1612" x1="785.945" y1="372.979" x2="129.282" y2="-129.672" gradientUnits="userSpaceOnUse">
<stop stop-color="#00A7D5"/>
<stop offset="1" stop-color="#6DDEFF"/>
</linearGradient>
<linearGradient id="paint2_linear_140_1612" x1="785.945" y1="372.979" x2="129.282" y2="-129.672" gradientUnits="userSpaceOnUse">
<stop stop-color="#00A7D5"/>
<stop offset="1" stop-color="#6DDEFF"/>
</linearGradient>
<linearGradient id="paint3_linear_140_1612" x1="785.945" y1="372.979" x2="129.282" y2="-129.672" gradientUnits="userSpaceOnUse">
<stop stop-color="#00A7D5"/>
<stop offset="1" stop-color="#6DDEFF"/>
</linearGradient>
<linearGradient id="paint4_linear_140_1612" x1="785.945" y1="372.979" x2="129.282" y2="-129.672" gradientUnits="userSpaceOnUse">
<stop stop-color="#00A7D5"/>
<stop offset="1" stop-color="#6DDEFF"/>
</linearGradient>
<linearGradient id="paint5_linear_140_1612" x1="785.945" y1="372.979" x2="129.282" y2="-129.672" gradientUnits="userSpaceOnUse">
<stop stop-color="#00A7D5"/>
<stop offset="1" stop-color="#6DDEFF"/>
</linearGradient>
<linearGradient id="paint6_linear_140_1612" x1="785.945" y1="372.979" x2="129.282" y2="-129.672" gradientUnits="userSpaceOnUse">
<stop stop-color="#00A7D5"/>
<stop offset="1" stop-color="#6DDEFF"/>
</linearGradient>
<linearGradient id="paint7_linear_140_1612" x1="785.945" y1="372.979" x2="129.282" y2="-129.672" gradientUnits="userSpaceOnUse">
<stop stop-color="#00A7D5"/>
<stop offset="1" stop-color="#6DDEFF"/>
</linearGradient>
<linearGradient id="paint8_linear_140_1612" x1="785.945" y1="372.979" x2="129.282" y2="-129.672" gradientUnits="userSpaceOnUse">
<stop stop-color="#00A7D5"/>
<stop offset="1" stop-color="#6DDEFF"/>
</linearGradient>
<linearGradient id="paint9_linear_140_1612" x1="785.945" y1="372.979" x2="129.282" y2="-129.672" gradientUnits="userSpaceOnUse">
<stop stop-color="#00A7D5"/>
<stop offset="1" stop-color="#6DDEFF"/>
</linearGradient>
<linearGradient id="paint10_linear_140_1612" x1="785.945" y1="372.979" x2="129.282" y2="-129.672" gradientUnits="userSpaceOnUse">
<stop stop-color="#00A7D5"/>
<stop offset="1" stop-color="#6DDEFF"/>
</linearGradient>
<linearGradient id="paint11_linear_140_1612" x1="785.945" y1="372.979" x2="129.282" y2="-129.672" gradientUnits="userSpaceOnUse">
<stop stop-color="#00A7D5"/>
<stop offset="1" stop-color="#6DDEFF"/>
</linearGradient>
<linearGradient id="paint12_linear_140_1612" x1="785.945" y1="372.979" x2="129.282" y2="-129.672" gradientUnits="userSpaceOnUse">
<stop stop-color="#00A7D5"/>
<stop offset="1" stop-color="#6DDEFF"/>
</linearGradient>
<linearGradient id="paint13_linear_140_1612" x1="180.832" y1="398.237" x2="223.696" y2="449.324" gradientUnits="userSpaceOnUse">
<stop stop-color="#E0E0E0"/>
<stop offset="0.23753" stop-color="#E2E2E0"/>
<stop offset="1" stop-color="#E7E7E7"/>
</linearGradient>
<linearGradient id="paint14_linear_140_1612" x1="205.168" y1="396.412" x2="201.211" y2="450.998" gradientUnits="userSpaceOnUse">
<stop stop-color="#75D6FF"/>
<stop offset="0.338542" stop-color="white" stop-opacity="0"/>
</linearGradient>
<radialGradient id="paint15_radial_140_1612" cx="0" cy="0" r="1" gradientUnits="userSpaceOnUse" gradientTransform="translate(192.86 419.303) rotate(42.2397) scale(39.484 44.8007)">
<stop stop-color="white"/>
<stop offset="0.679664" stop-color="#F2F2F2" stop-opacity="0.658678"/>
<stop offset="1" stop-color="#A0A0A0" stop-opacity="0"/>
</radialGradient>
<linearGradient id="paint16_linear_140_1612" x1="180.832" y1="398.237" x2="223.696" y2="449.324" gradientUnits="userSpaceOnUse">
<stop stop-color="white"/>
<stop offset="1" stop-color="#A8A8A8" stop-opacity="0"/>
</linearGradient>
<linearGradient id="paint17_linear_140_1612" x1="194.296" y1="255.62" x2="268.354" y2="350.167" gradientUnits="userSpaceOnUse">
<stop stop-color="#E0E0E0"/>
<stop offset="0.23753" stop-color="#E2E2E0"/>
<stop offset="1" stop-color="#E7E7E7"/>
</linearGradient>
<linearGradient id="paint18_linear_140_1612" x1="239.98" y1="252.421" x2="233.502" y2="348.146" gradientUnits="userSpaceOnUse">
<stop stop-color="#75D6FF"/>
<stop offset="0.338542" stop-color="white" stop-opacity="0"/>
</linearGradient>
<radialGradient id="paint19_radial_140_1612" cx="0" cy="0" r="1" gradientUnits="userSpaceOnUse" gradientTransform="translate(216.876 292.537) rotate(40.2873) scale(71.9355 80.8952)">
<stop stop-color="white"/>
<stop offset="0.679664" stop-color="#F2F2F2" stop-opacity="0.658678"/>
<stop offset="1" stop-color="#A0A0A0" stop-opacity="0"/>
</radialGradient>
<linearGradient id="paint20_linear_140_1612" x1="194.296" y1="255.62" x2="268.354" y2="350.167" gradientUnits="userSpaceOnUse">
<stop stop-color="white"/>
<stop offset="1" stop-color="#A8A8A8" stop-opacity="0"/>
</linearGradient>
<linearGradient id="paint21_linear_140_1612" x1="341.01" y1="7.99999" x2="531.85" y2="236.383" gradientUnits="userSpaceOnUse">
<stop stop-color="#E0E0E0"/>
<stop offset="0.23753" stop-color="#E2E2E0"/>
<stop offset="1" stop-color="#E7E7E7"/>
</linearGradient>
<linearGradient id="paint22_linear_140_1612" x1="449.882" y1="-0.134181" x2="432.323" y2="243.083" gradientUnits="userSpaceOnUse">
<stop stop-color="#75D6FF"/>
<stop offset="0.338542" stop-color="white" stop-opacity="0"/>
</linearGradient>
<radialGradient id="paint23_radial_140_1612" cx="0" cy="0" r="1" gradientUnits="userSpaceOnUse" gradientTransform="translate(394.82 101.856) rotate(42.1232) scale(176.314 199.975)">
<stop stop-color="white"/>
<stop offset="0.679664" stop-color="#F2F2F2" stop-opacity="0.658678"/>
<stop offset="1" stop-color="#A0A0A0" stop-opacity="0"/>
</radialGradient>
<linearGradient id="paint24_linear_140_1612" x1="341.01" y1="7.99999" x2="531.85" y2="236.383" gradientUnits="userSpaceOnUse">
<stop stop-color="white"/>
<stop offset="1" stop-color="#A8A8A8" stop-opacity="0"/>
</linearGradient>
<linearGradient id="paint25_linear_140_1612" x1="288.016" y1="335.906" x2="167.085" y2="280.288" gradientUnits="userSpaceOnUse">
<stop stop-color="#00A7D5"/>
<stop offset="1" stop-color="#6DDEFF"/>
</linearGradient>
<linearGradient id="paint26_linear_140_1612" x1="422.067" y1="247.652" x2="264.374" y2="218.555" gradientUnits="userSpaceOnUse">
<stop stop-color="#00A7D5"/>
<stop offset="1" stop-color="#6DDEFF"/>
</linearGradient>
</defs>
</svg>
