<svg width="731" height="468" viewBox="0 0 731 468" fill="none" xmlns="http://www.w3.org/2000/svg">
<path d="M213.884 337.368C208.716 335.24 204.916 333.036 202.484 330.756C200.204 328.324 199.292 326.196 199.748 324.372C200.052 323.46 200.584 322.624 201.344 321.864C202.104 321.104 203.776 320.8 206.36 320.952C209.096 320.952 213.276 321.636 218.9 323.004C220.572 323.004 222.244 322.928 223.916 322.776C225.588 322.624 227.108 322.396 228.476 322.092C229.996 321.788 231.212 321.408 232.124 320.952C232.884 320.648 233.112 320.268 232.808 319.812C232.504 319.204 231.972 318.596 231.212 317.988C230.604 317.228 229.92 316.772 229.16 316.62C228.4 316.316 227.716 316.164 227.108 316.164C226.804 315.404 226.12 314.644 225.056 313.884C224.144 313.124 223.004 312.288 221.636 311.376C218.292 308.64 215.252 306.208 212.516 304.08C209.78 301.952 208.716 300.356 209.324 299.292C209.324 298.684 209.324 298.38 209.324 298.38C209.324 298.228 209.324 298.152 209.324 298.152C208.26 298.152 207.272 296.708 206.36 293.82C205.448 290.78 204.992 288.044 204.992 285.612C204.992 282.572 205.6 279.532 206.816 276.492C208.184 273.452 209.856 270.564 211.832 267.828C213.96 265.092 216.088 262.66 218.216 260.532C221.104 257.796 224.144 255.136 227.336 252.552C230.68 249.816 234.252 247.384 238.052 245.256C242.004 243.128 246.336 241.456 251.048 240.24C253.176 239.784 255.608 239.556 258.344 239.556C261.08 239.556 263.056 239.936 264.272 240.696C265.488 239.936 267.008 240.164 268.832 241.38C270.656 242.444 272.48 243.964 274.304 245.94C276.128 247.916 277.496 249.892 278.408 251.868C278.408 253.692 278.332 255.972 278.18 258.708C278.18 261.292 278.028 263.572 277.724 265.548C277.42 267.524 276.736 268.512 275.672 268.512C275.672 268.512 275.444 268.588 274.988 268.74C274.684 268.74 274.532 269.12 274.532 269.88C274.532 271.4 273.392 273.148 271.112 275.124C268.224 277.1 265.488 278.696 262.904 279.912C260.32 281.128 258.344 281.204 256.976 280.14C256.064 279.532 255.228 278.924 254.468 278.316C253.708 277.708 253.024 276.948 252.416 276.036C252.416 276.036 252.188 275.732 251.732 275.124C251.428 274.364 251.276 273.68 251.276 273.072C251.276 272.464 251.504 271.932 251.96 271.476C252.416 270.868 252.644 270.564 252.644 270.564C254.772 268.588 256.368 266.764 257.432 265.092C258.648 263.42 259.484 261.976 259.94 260.76C260.396 259.392 260.624 258.328 260.624 257.568C260.624 256.656 260.396 256.124 259.94 255.972C259.636 255.668 258.876 255.516 257.66 255.516C256.9 255.516 255.228 256.124 252.644 257.34C250.212 258.556 247.628 260.076 244.892 261.9C242.156 263.572 240.028 265.092 238.508 266.46C237.9 267.524 237.444 268.208 237.14 268.512C236.988 268.816 236.608 268.968 236 268.968C236 268.36 235.62 268.436 234.86 269.196C234.1 269.956 233.188 271.02 232.124 272.388C231.06 273.756 229.996 275.2 228.932 276.72C227.868 278.24 227.032 279.456 226.424 280.368C226.272 281.736 225.892 283.028 225.284 284.244C224.828 285.308 224.676 286.448 224.828 287.664C224.98 289.184 225.74 290.628 227.108 291.996C228.476 293.364 230.452 295.112 233.036 297.24C238.356 301.192 242.308 304.308 244.892 306.588C247.628 308.868 249.528 310.692 250.592 312.06C251.656 313.428 252.34 314.796 252.644 316.164C255.228 320.876 255.532 324.98 253.556 328.476C251.58 331.82 248.54 334.404 244.436 336.228C242.916 336.988 240.256 337.672 236.456 338.28C232.656 339.04 228.628 339.344 224.372 339.192C220.268 339.192 216.772 338.584 213.884 337.368Z" fill="url(#paint0_linear_154_523)"/>
<path d="M311.151 337.368C309.023 336.76 306.895 335.696 304.767 334.176C302.639 332.656 300.435 330.908 298.155 328.932C296.331 326.5 295.039 324.296 294.279 322.32C293.519 320.192 293.063 317.76 292.911 315.024C292.911 312.136 292.911 308.488 292.911 304.08C292.911 302.256 293.215 299.672 293.823 296.328C294.583 292.984 295.343 289.488 296.103 285.84C297.015 282.192 297.851 279 298.611 276.264C299.371 273.376 299.827 271.476 299.979 270.564C300.435 268.588 299.675 267.448 297.699 267.144C295.723 266.84 293.519 266.764 291.087 266.916C288.807 266.916 287.287 266.688 286.527 266.232C285.919 266.08 285.615 265.32 285.615 263.952C285.615 262.432 285.615 261.672 285.615 261.672C285.615 261.064 285.311 260.684 284.703 260.532C284.095 260.228 283.563 259.696 283.107 258.936C282.803 258.328 283.183 257.188 284.247 255.516C285.311 253.844 286.679 252.856 288.351 252.552C289.719 252.248 291.771 252.02 294.507 251.868C297.243 251.564 299.979 251.032 302.715 250.272C305.603 249.36 307.807 247.992 309.327 246.168C310.695 242.824 312.215 239.252 313.887 235.452C315.559 231.5 317.155 228.08 318.675 225.192C320.195 222.152 321.259 220.252 321.867 219.492C324.451 218.124 327.111 217.592 329.847 217.896C332.583 218.048 334.711 219.34 336.231 221.772C336.991 222.836 337.599 223.596 338.055 224.052C338.663 224.508 338.891 225.192 338.739 226.104C338.739 227.016 338.131 228.688 336.915 231.12C335.851 233.4 334.027 236.972 331.443 241.836C330.683 243.356 329.999 244.724 329.391 245.94C328.783 247.004 328.479 247.536 328.479 247.536C329.087 247.688 329.999 247.764 331.215 247.764C332.431 247.764 333.951 247.688 335.775 247.536C337.447 247.232 339.271 247.004 341.247 246.852C343.223 246.548 344.971 246.548 346.491 246.852C349.987 246.852 352.571 247.84 354.243 249.816C355.915 251.792 356.827 254.3 356.979 257.34C357.283 259.012 356.675 260.456 355.155 261.672C353.635 262.888 350.823 263.496 346.719 263.496C345.351 263.496 343.375 263.572 340.791 263.724C338.207 263.876 335.547 264.028 332.811 264.18C330.075 264.332 327.719 264.56 325.743 264.864C323.919 265.016 323.007 265.244 323.007 265.548C322.551 265.852 321.791 267.068 320.727 269.196C319.815 271.172 318.827 273.604 317.763 276.492C316.851 279.38 316.015 282.116 315.255 284.7C314.191 289.868 313.431 294.884 312.975 299.748C312.519 304.612 312.443 308.868 312.747 312.516C313.203 316.012 314.115 318.52 315.483 320.04C316.851 321.408 318.903 321.408 321.639 320.04C324.527 318.52 327.187 316.772 329.619 314.796C332.355 312.516 334.711 311.832 336.687 312.744C338.663 313.504 339.879 315.176 340.335 317.76C340.943 320.192 340.259 322.852 338.283 325.74C336.459 328.628 333.875 331.06 330.531 333.036C327.187 335.012 323.767 336.38 320.271 337.14C316.775 338.052 313.735 338.128 311.151 337.368Z" fill="url(#paint1_linear_154_523)"/>
<path d="M410.799 335.544C409.279 334.024 408.063 331.972 407.151 329.388C406.239 326.652 405.327 323.536 404.415 320.04C404.111 318.824 403.959 317.456 403.959 315.936C404.111 314.416 404.111 313.2 403.959 312.288C403.503 313.352 402.743 314.72 401.679 316.392C400.767 318.064 399.855 319.28 398.943 320.04C398.335 320.648 396.967 321.864 394.839 323.688C392.711 325.36 390.583 326.728 388.455 327.792C383.439 330.984 378.955 332.504 375.003 332.352C371.203 332.048 367.859 330.072 364.971 326.424C362.539 324.448 360.563 321.94 359.043 318.9C357.523 315.86 357.219 312.212 358.131 307.956C358.435 302.636 359.195 297.468 360.411 292.452C361.627 287.284 364.135 280.444 367.935 271.932C371.127 265.7 373.559 260.836 375.231 257.34C376.903 253.844 377.967 251.792 378.423 251.184C380.703 250.424 383.515 250.5 386.859 251.412C390.203 252.172 392.027 253.616 392.331 255.744C393.243 257.264 393.243 260.152 392.331 264.408C391.419 268.512 389.595 273.224 386.859 278.544C384.731 283.712 382.679 288.728 380.703 293.592C378.879 298.456 377.739 302.56 377.283 305.904C376.979 309.248 377.891 311.3 380.019 312.06C381.387 312.82 383.363 312.744 385.947 311.832C388.683 310.92 391.875 308.184 395.523 303.624C399.171 299.064 403.047 291.844 407.151 281.964C408.367 278.924 409.279 276.264 409.887 273.984C410.495 271.552 410.875 268.892 411.027 266.004C410.723 264.18 411.179 262.28 412.395 260.304C413.763 258.328 415.359 256.808 417.183 255.744C417.791 254.984 418.627 254.3 419.691 253.692C420.755 252.932 421.439 252.932 421.743 253.692L425.391 253.464C425.999 253.312 426.683 253.92 427.443 255.288C428.203 256.656 428.963 257.644 429.723 258.252C431.395 259.62 432.155 262.584 432.003 267.144C431.851 271.704 430.027 278.088 426.531 286.296C423.643 292.528 421.667 297.24 420.603 300.432C419.691 303.624 419.159 306.74 419.007 309.78C419.007 312.516 419.235 314.872 419.691 316.848C420.147 318.672 421.515 320.572 423.795 322.548C425.467 323.612 426.379 325.436 426.531 328.02C426.835 330.452 426.911 332.58 426.759 334.404C426.455 335.772 425.239 336.684 423.111 337.14C421.135 337.748 418.931 337.9 416.499 337.596C414.219 337.292 412.319 336.608 410.799 335.544Z" fill="url(#paint2_linear_154_523)"/>
<path d="M499.974 338.736C498.302 339.344 496.402 339.648 494.274 339.648C492.298 339.8 490.018 338.888 487.434 336.912C485.914 335.24 484.85 333.492 484.242 331.668C483.786 329.844 483.558 327.032 483.558 323.232C483.862 320.952 484.47 317.684 485.382 313.428C486.294 309.02 487.282 304.46 488.346 299.748C489.562 294.884 490.626 290.552 491.538 286.752C492.602 282.8 493.438 280.14 494.046 278.772C495.11 275.124 495.338 272.844 494.73 271.932C494.122 271.02 492.298 270.488 489.258 270.336C485.762 270.184 482.114 271.856 478.314 275.352C474.514 278.848 470.182 284.396 465.318 291.996C461.67 297.62 459.466 302.256 458.706 305.904C457.946 309.4 457.87 311.832 458.478 313.2C458.782 313.808 459.314 314.188 460.074 314.34C460.986 314.34 462.05 314.112 463.266 313.656C464.634 313.2 466.078 312.592 467.598 311.832C468.662 311.224 469.954 310.616 471.474 310.008C473.146 309.248 474.742 308.564 476.262 307.956C477.174 307.956 477.782 308.488 478.086 309.552C478.542 310.616 478.77 311.908 478.77 313.428C478.77 314.036 478.922 315.176 479.226 316.848C479.682 318.52 480.442 319.66 481.506 320.268C482.114 320.876 480.822 322.168 477.63 324.144C474.59 325.968 470.638 328.248 465.774 330.984C461.214 332.048 457.794 332.58 455.514 332.58C453.386 332.58 451.03 331.592 448.446 329.616C444.19 327.032 441.454 322.244 440.238 315.252C439.174 308.26 440.086 300.508 442.974 291.996C445.862 285.156 449.054 279.304 452.55 274.44C456.198 269.424 459.998 264.864 463.95 260.76C464.558 260.152 466.458 258.936 469.65 257.112C472.842 255.288 476.11 253.844 479.454 252.78C483.254 251.564 486.446 251.108 489.03 251.412C491.766 251.564 494.35 252.476 496.782 254.148C499.518 254.756 501.342 254.68 502.254 253.92C503.318 253.16 504.534 251.032 505.902 247.536C508.638 239.936 511.526 232.26 514.566 224.508C517.606 216.604 520.798 208.624 524.142 200.568C525.662 197.68 526.574 195.476 526.878 193.956C527.334 192.284 527.866 191.144 528.474 190.536L534.858 188.484C536.53 188.028 538.43 188.788 540.558 190.764C542.838 192.74 544.282 194.64 544.89 196.464C544.89 197.832 544.282 200.872 543.066 205.584C541.85 210.144 539.874 215.616 537.138 222C534.706 227.624 532.274 233.324 529.842 239.1C527.562 244.724 525.358 250.728 523.23 257.112C521.558 261.824 520.038 265.624 518.67 268.512C517.302 271.4 516.39 273.908 515.934 276.036C515.022 279.988 513.882 283.56 512.514 286.752C511.298 289.792 510.462 291.92 510.006 293.136C508.03 298.912 506.51 303.7 505.446 307.5C504.382 311.148 503.698 314.34 503.394 317.076C503.09 319.66 503.014 322.244 503.166 324.828C503.318 327.26 503.622 330.072 504.078 333.264C504.078 333.872 503.622 334.784 502.71 336C501.95 337.064 501.038 337.976 499.974 338.736Z" fill="url(#paint3_linear_154_523)"/>
<path d="M549.301 335.772C545.653 335.772 542.461 333.872 539.725 330.072C537.141 326.12 535.545 321.408 534.937 315.936C535.089 314.72 535.241 312.972 535.393 310.692C535.697 308.412 536.001 306.056 536.305 303.624C536.913 300.736 537.749 297.012 538.812 292.452C539.876 287.892 541.017 283.332 542.233 278.772C543.449 274.06 544.513 270.032 545.425 266.688C546.337 263.192 546.869 261.14 547.021 260.532C547.933 258.404 549.985 257.872 553.177 258.936C556.369 260 559.105 262.28 561.385 265.776C562.297 266.992 562.829 268.436 562.981 270.108C563.285 271.78 563.057 274.212 562.297 277.404C561.689 280.596 560.473 285.308 558.649 291.54C556.977 297.62 555.685 302.56 554.773 306.36C554.013 310.008 553.709 313.884 553.861 317.988C553.253 324.98 552.645 329.768 552.037 332.352C551.429 334.784 550.517 335.924 549.301 335.772ZM570.277 241.152C569.669 241.608 569.061 241.836 568.453 241.836C567.997 241.684 567.161 241.228 565.945 240.468C564.881 240.316 563.513 239.632 561.841 238.416C560.321 237.048 558.953 235.68 557.737 234.312C556.673 232.944 556.141 232.108 556.141 231.804C555.989 230.284 556.065 227.852 556.369 224.508C556.825 221.164 557.661 218.048 558.877 215.16C560.245 212.12 562.069 210.524 564.349 210.372C564.957 210.372 566.249 210.676 568.225 211.284C570.353 211.892 572.557 212.652 574.837 213.564C576.053 215.844 577.193 218.808 578.257 222.456C579.321 226.104 579.397 229.676 578.485 233.172C577.725 236.516 574.989 239.176 570.277 241.152Z" fill="url(#paint4_linear_154_523)"/>
<path d="M593.142 333.948C587.214 331.516 583.11 327.564 580.83 322.092C578.55 316.62 577.942 309.324 579.006 300.204C579.31 295.492 579.158 292.376 578.55 290.856C577.942 289.184 576.802 287.588 575.13 286.068C574.674 285.46 573.61 284.472 571.938 283.104C570.266 281.584 569.506 280.444 569.658 279.684C569.506 278.62 569.734 277.328 570.342 275.808C570.95 274.136 571.482 273.224 571.938 273.072C573.002 272.616 574.066 272.084 575.13 271.476C576.346 270.868 577.258 270.716 577.866 271.02C578.474 271.02 579.386 271.4 580.602 272.16C581.97 272.92 582.654 273.604 582.654 274.212C583.262 275.276 584.174 274.82 585.39 272.844C586.758 270.868 588.202 268.36 589.722 265.32C591.242 262.888 593.142 260.608 595.422 258.48C597.702 256.352 599.982 254.452 602.262 252.78C604.694 250.956 606.746 249.588 608.418 248.676C609.178 248.372 610.622 247.916 612.75 247.308C615.03 246.7 617.386 246.244 619.818 245.94C622.25 245.484 624.074 245.332 625.29 245.484C628.026 245.636 630.914 246.776 633.954 248.904C636.994 251.032 639.35 253.008 641.022 254.832C642.998 256.2 644.29 258.328 644.898 261.216C645.658 263.952 645.962 266.84 645.81 269.88C645.658 272.92 645.05 275.504 643.986 277.632C643.53 279.152 641.934 281.28 639.198 284.016C636.462 286.752 633.422 289.412 630.078 291.996C626.886 294.428 624.15 296.1 621.87 297.012C619.894 297.468 617.538 297.848 614.802 298.152C612.066 298.304 609.482 298.304 607.05 298.152C604.77 297.848 603.174 297.468 602.262 297.012C601.198 296.404 600.286 296.632 599.526 297.696C598.918 298.608 598.386 301.192 597.93 305.448C597.778 307.12 597.778 308.564 597.93 309.78C598.234 310.996 598.538 311.908 598.842 312.516C599.906 314.34 600.97 315.708 602.034 316.62C603.098 317.38 605.074 317.608 607.962 317.304C610.85 317 613.738 315.252 616.626 312.06C619.666 308.716 622.402 306.056 624.834 304.08C625.442 303.016 626.734 302.332 628.71 302.028C630.838 301.572 633.346 301.724 636.234 302.484C637.906 303.548 638.666 305.22 638.514 307.5C638.514 309.78 637.298 313.124 634.866 317.532C634.41 318.596 633.118 320.192 630.99 322.32C629.014 324.296 626.81 326.348 624.378 328.476C622.098 330.452 620.198 331.896 618.678 332.808C614.118 335.24 609.634 336.38 605.226 336.228C600.818 336.076 596.79 335.316 593.142 333.948ZM610.014 282.648C612.294 282.04 614.194 281.432 615.714 280.824C617.386 280.216 618.982 279.228 620.502 277.86C622.022 276.492 623.77 274.44 625.746 271.704C626.354 270.032 626.658 268.588 626.658 267.372C626.81 266.156 626.734 265.396 626.43 265.092C625.214 263.876 623.846 263.496 622.326 263.952C620.958 264.256 619.438 265.016 617.766 266.232C616.702 266.688 615.182 267.676 613.206 269.196C611.382 270.564 609.558 272.16 607.734 273.984C606.062 275.656 604.694 277.252 603.63 278.772C602.718 280.14 602.566 280.976 603.174 281.28C602.87 281.888 603.706 282.268 605.682 282.42C607.81 282.572 609.254 282.648 610.014 282.648Z" fill="url(#paint5_linear_154_523)"/>
<path d="M666.099 337.368C660.931 335.24 657.131 333.036 654.699 330.756C652.419 328.324 651.507 326.196 651.963 324.372C652.267 323.46 652.799 322.624 653.559 321.864C654.319 321.104 655.991 320.8 658.575 320.952C661.311 320.952 665.491 321.636 671.115 323.004C672.787 323.004 674.459 322.928 676.131 322.776C677.803 322.624 679.323 322.396 680.691 322.092C682.211 321.788 683.427 321.408 684.339 320.952C685.099 320.648 685.327 320.268 685.023 319.812C684.719 319.204 684.187 318.596 683.427 317.988C682.819 317.228 682.135 316.772 681.375 316.62C680.615 316.316 679.931 316.164 679.323 316.164C679.019 315.404 678.335 314.644 677.271 313.884C676.359 313.124 675.219 312.288 673.851 311.376C670.507 308.64 667.467 306.208 664.731 304.08C661.995 301.952 660.931 300.356 661.539 299.292C661.539 298.684 661.539 298.38 661.539 298.38C661.539 298.228 661.539 298.152 661.539 298.152C660.475 298.152 659.487 296.708 658.575 293.82C657.663 290.78 657.207 288.044 657.207 285.612C657.207 282.572 657.815 279.532 659.031 276.492C660.399 273.452 662.071 270.564 664.047 267.828C666.175 265.092 668.303 262.66 670.431 260.532C673.319 257.796 676.359 255.136 679.551 252.552C682.895 249.816 686.467 247.384 690.267 245.256C694.219 243.128 698.551 241.456 703.263 240.24C705.391 239.784 707.823 239.556 710.559 239.556C713.295 239.556 715.271 239.936 716.487 240.696C717.703 239.936 719.223 240.164 721.047 241.38C722.871 242.444 724.695 243.964 726.519 245.94C728.343 247.916 729.711 249.892 730.623 251.868C730.623 253.692 730.547 255.972 730.395 258.708C730.395 261.292 730.243 263.572 729.939 265.548C729.635 267.524 728.951 268.512 727.887 268.512C727.887 268.512 727.659 268.588 727.203 268.74C726.899 268.74 726.747 269.12 726.747 269.88C726.747 271.4 725.607 273.148 723.327 275.124C720.439 277.1 717.703 278.696 715.119 279.912C712.535 281.128 710.559 281.204 709.191 280.14C708.279 279.532 707.443 278.924 706.683 278.316C705.923 277.708 705.239 276.948 704.631 276.036C704.631 276.036 704.403 275.732 703.947 275.124C703.643 274.364 703.491 273.68 703.491 273.072C703.491 272.464 703.719 271.932 704.175 271.476C704.631 270.868 704.859 270.564 704.859 270.564C706.987 268.588 708.583 266.764 709.647 265.092C710.863 263.42 711.699 261.976 712.155 260.76C712.611 259.392 712.839 258.328 712.839 257.568C712.839 256.656 712.611 256.124 712.155 255.972C711.851 255.668 711.091 255.516 709.875 255.516C709.115 255.516 707.443 256.124 704.859 257.34C702.427 258.556 699.843 260.076 697.107 261.9C694.371 263.572 692.243 265.092 690.723 266.46C690.115 267.524 689.659 268.208 689.355 268.512C689.203 268.816 688.823 268.968 688.215 268.968C688.215 268.36 687.835 268.436 687.075 269.196C686.315 269.956 685.403 271.02 684.339 272.388C683.275 273.756 682.211 275.2 681.147 276.72C680.083 278.24 679.247 279.456 678.639 280.368C678.487 281.736 678.107 283.028 677.499 284.244C677.043 285.308 676.891 286.448 677.043 287.664C677.195 289.184 677.955 290.628 679.323 291.996C680.691 293.364 682.667 295.112 685.251 297.24C690.571 301.192 694.523 304.308 697.107 306.588C699.843 308.868 701.743 310.692 702.807 312.06C703.871 313.428 704.555 314.796 704.859 316.164C707.443 320.876 707.747 324.98 705.771 328.476C703.795 331.82 700.755 334.404 696.651 336.228C695.131 336.988 692.471 337.672 688.671 338.28C684.871 339.04 680.843 339.344 676.587 339.192C672.483 339.192 668.987 338.584 666.099 337.368Z" fill="url(#paint6_linear_154_523)"/>
<path d="M28.388 171.912C23.98 172.672 19.572 172.292 15.164 170.772C10.908 169.252 7.33602 166.82 4.44802 163.476C1.71202 159.98 0.344016 155.8 0.344016 150.936C-0.111984 146.376 0.268016 140.98 1.48402 134.748C2.85202 128.364 4.82802 121.98 7.41202 115.596C10.148 109.212 13.264 103.816 16.76 99.408C19.8 95.76 22.84 92.416 25.88 89.376C28.92 86.336 31.656 84.284 34.088 83.22C36.216 82.308 38.8 81.624 41.84 81.168C45.032 80.56 47.236 80.256 48.452 80.256C50.884 80.864 53.544 81.852 56.432 83.22C59.472 84.588 60.992 86.184 60.992 88.008C60.992 88.008 61.144 88.236 61.448 88.692C61.904 88.996 62.132 89.148 62.132 89.148C63.044 89.148 64.032 90.288 65.096 92.568C66.312 94.696 67.224 97.204 67.832 100.092C68.44 102.828 68.288 105.032 67.376 106.704C66.768 109.592 65.552 112.404 63.728 115.14C62.056 117.876 60.612 119.244 59.396 119.244C58.788 119.244 58.18 119.32 57.572 119.472C57.116 119.472 56.888 119.852 56.888 120.612C56.888 121.372 56.052 121.752 54.38 121.752C52.86 121.752 51.264 121.448 49.592 120.84C47.92 120.232 46.856 119.32 46.4 118.104C46.4 117.344 46.552 116.356 46.856 115.14C47.16 113.924 47.616 111.872 48.224 108.984C49.136 104.728 49.212 101.916 48.452 100.548C47.692 99.028 45.792 98.876 42.752 100.092C38.952 102.22 35.836 104.728 33.404 107.616C30.972 110.352 28.768 114.228 26.792 119.244C24.968 124.26 22.916 131.252 20.636 140.22C19.724 143.716 19.572 146.452 20.18 148.428C20.94 150.404 21.548 151.468 22.004 151.62C24.132 152.228 26.412 152.38 28.844 152.076C31.428 151.62 33.556 150.936 35.228 150.024C37.66 148.808 39.788 147.516 41.612 146.148C43.588 144.628 45.716 143.032 47.996 141.36C48.756 140.904 49.44 140.068 50.048 138.852C50.656 137.484 51.568 136.496 52.784 135.888C54 134.064 55.52 133.152 57.344 133.152C59.32 133 61.22 132.924 63.044 132.924C64.26 133.228 65.552 133.988 66.92 135.204C68.288 136.42 69.276 137.636 69.884 138.852C70.644 139.916 70.568 140.676 69.656 141.132C69.048 141.132 68.668 141.36 68.516 141.816C68.516 142.12 68.516 142.272 68.516 142.272C68.82 142.88 68.136 144.248 66.464 146.376C64.944 148.504 62.968 150.784 60.536 153.216C58.104 155.648 55.748 157.776 53.468 159.6C51.34 161.272 49.82 162.108 48.908 162.108C47.388 162.108 46.628 162.564 46.628 163.476C46.628 163.78 45.488 164.54 43.208 165.756C41.08 166.972 38.572 168.188 35.684 169.404C32.948 170.62 30.516 171.456 28.388 171.912Z" fill="url(#paint7_linear_154_523)"/>
<path d="M89.3228 166.212C88.7148 164.996 87.3468 163.78 85.2188 162.564C83.2428 161.348 82.2548 160.436 82.2548 159.828C82.2548 159.22 81.8748 158.308 81.1148 157.092C80.5068 155.724 79.8988 154.736 79.2908 154.128C78.5308 153.216 78.7588 151.012 79.9748 147.516C81.1908 143.868 83.0148 139.46 85.4468 134.292C87.8788 129.124 90.5388 123.88 93.4268 118.56C94.6428 117.344 95.8588 115.748 97.0748 113.772C98.2908 111.796 99.2028 110.504 99.8108 109.896C99.8108 109.288 100.039 108.756 100.495 108.3C100.951 107.692 101.483 107.388 102.091 107.388L103.915 103.74C104.219 103.132 105.131 101.916 106.651 100.092C108.323 98.268 110.299 96.292 112.579 94.164C114.859 91.884 117.139 89.756 119.419 87.78C121.851 85.804 123.827 84.36 125.347 83.448C128.539 81.32 131.807 80.332 135.151 80.484C138.647 80.636 141.611 81.7 144.043 83.676C144.499 84.132 145.487 85.044 147.007 86.412C148.679 87.78 150.503 89.3 152.479 90.972C154.607 92.644 156.431 94.164 157.951 95.532L166.387 103.056L162.511 114.456C160.535 120.536 160.003 125.856 160.915 130.416C161.827 134.976 163.271 138.928 165.247 142.272C166.007 143.944 166.995 145.236 168.211 146.148C169.579 147.06 171.327 147.668 173.455 147.972C174.671 148.124 175.811 148.58 176.875 149.34C177.939 150.1 178.471 151.316 178.471 152.988C178.471 156.636 177.787 159.296 176.419 160.968C175.203 162.488 173.835 163.4 172.315 163.704C167.299 164.312 162.511 163.78 157.951 162.108C153.391 160.436 149.287 156.104 145.639 149.112C145.031 148.2 144.195 146.528 143.131 144.096C142.219 141.512 141.687 139.84 141.535 139.08C140.927 139.84 140.091 140.828 139.027 142.044C138.115 143.108 137.203 144.096 136.291 145.008C125.499 155.952 116.227 163.096 108.475 166.44C100.875 169.632 94.4908 169.556 89.3228 166.212ZM101.863 147.288C102.927 147.44 104.599 146.908 106.879 145.692C109.159 144.324 112.199 142.12 115.999 139.08C121.167 134.672 125.423 131.024 128.767 128.136C132.111 125.248 135.379 121.524 138.571 116.964L143.587 108.756C142.067 105.26 140.699 102.98 139.483 101.916C138.267 100.852 137.051 100.32 135.835 100.32C133.859 100.32 131.503 101.612 128.767 104.196C126.031 106.628 122.915 110.276 119.419 115.14C116.075 119.852 112.275 125.78 108.019 132.924C106.043 136.268 104.523 139.536 103.459 142.728C102.395 145.768 101.863 147.288 101.863 147.288Z" fill="url(#paint8_linear_154_523)"/>
<path d="M207.037 172.368C202.173 172.368 197.689 171.304 193.585 169.176C189.633 166.896 186.441 164.16 184.009 160.968C181.577 157.624 180.361 154.432 180.361 151.392C180.361 150.024 180.589 149.036 181.045 148.428C181.653 147.82 182.489 147.516 183.553 147.516C184.313 147.668 185.225 148.048 186.289 148.656C187.353 149.264 188.417 149.948 189.481 150.708C191.913 152.38 194.573 153.444 197.461 153.9C200.349 154.356 202.933 154.204 205.213 153.444C207.493 152.532 208.785 151.164 209.089 149.34C209.089 148.732 208.785 147.44 208.177 145.464C207.569 143.488 206.809 141.588 205.897 139.764C202.097 134.14 199.741 128.82 198.829 123.804C197.917 118.636 197.309 113.468 197.005 108.3C197.005 106.172 197.993 103.816 199.969 101.232C201.945 98.496 204.377 95.836 207.265 93.252C210.457 90.516 213.953 87.932 217.753 85.5C221.705 83.068 225.581 81.016 229.381 79.344C233.181 77.672 236.373 76.684 238.957 76.38C241.693 76.38 244.581 76.532 247.621 76.836C250.813 76.988 252.941 77.52 254.005 78.432C256.133 80.104 258.109 82.84 259.933 86.64C261.757 90.44 262.669 93.632 262.669 96.216C262.669 97.432 261.985 98.952 260.617 100.776C259.401 102.448 258.261 104.348 257.197 106.476C256.589 107.54 256.057 108.68 255.601 109.896C255.145 111.112 254.613 112.328 254.005 113.544C253.093 115.672 251.421 116.584 248.989 116.28C246.709 115.824 244.581 114.608 242.605 112.632C240.629 110.504 239.641 108.072 239.641 105.336C239.641 103.056 240.325 101.08 241.693 99.408C243.061 97.736 243.745 96.596 243.745 95.988C243.745 95.684 243.593 95.456 243.289 95.304C242.985 95.152 242.453 95.076 241.693 95.076C240.629 95.076 238.881 95.532 236.449 96.444C234.169 97.204 231.737 98.344 229.153 99.864C226.569 101.384 224.213 103.208 222.085 105.336C220.565 107.008 219.273 108.832 218.209 110.808C217.297 112.632 216.841 114.608 216.841 116.736C216.841 118.864 217.221 121.372 217.981 124.26C218.893 126.996 219.881 129.276 220.945 131.1C221.249 131.404 221.705 132.24 222.313 133.608C223.073 134.824 223.909 136.344 224.821 138.168C230.445 149.72 231.357 158.308 227.557 163.932C223.909 169.556 217.069 172.368 207.037 172.368Z" fill="url(#paint9_linear_154_523)"/>
<path d="M288.344 175.104C279.984 175.104 273.524 172.672 268.964 167.808C264.556 162.944 262.352 155.496 262.352 145.464C262.352 139.992 263.34 133.988 265.316 127.452C267.444 120.916 270.18 114.532 273.524 108.3C277.02 102.068 280.82 96.672 284.924 92.112C289.028 87.4 293.132 84.132 297.236 82.308C298.756 81.548 300.352 81.016 302.024 80.712C303.848 80.256 305.596 80.028 307.268 80.028C309.092 80.028 311.068 80.18 313.196 80.484C315.476 80.636 317.604 81.092 319.58 81.852C323.076 82.916 326.116 84.968 328.7 88.008C331.436 91.048 332.804 95.456 332.804 101.232C332.804 102.752 332.652 104.424 332.348 106.248C332.044 107.92 331.512 109.592 330.752 111.264C328.776 116.28 325.736 121.068 321.632 125.628C317.68 130.188 313.5 133.38 309.092 135.204C307.876 135.812 306.66 136.268 305.444 136.572C304.38 136.724 303.24 136.8 302.024 136.8C298.832 136.8 295.944 136.344 293.36 135.432C290.928 134.52 288.648 133.304 286.52 131.784L284.696 130.188L283.556 132.468C282.492 135.356 281.732 137.788 281.276 139.764C280.972 141.74 280.82 143.184 280.82 144.096C280.82 145.92 280.896 147.82 281.048 149.796C281.2 151.62 281.656 153.14 282.416 154.356C283.024 155.116 283.784 155.724 284.696 156.18C285.76 156.636 287.052 156.864 288.572 156.864C289.484 156.864 290.32 156.864 291.08 156.864C291.992 156.712 292.752 156.56 293.36 156.408C296.096 155.8 298.3 154.812 299.972 153.444C301.796 151.924 303.696 150.632 305.672 149.568L306.584 149.112L306.356 148.428C308.94 147.06 310.688 146.224 311.6 145.92C312.512 145.464 313.196 145.084 313.652 144.78C314.26 144.172 314.944 143.868 315.704 143.868C317.832 143.564 319.884 144.172 321.86 145.692C323.988 147.06 325.052 148.808 325.052 150.936C325.052 151.848 324.368 153.292 323 155.268C321.784 157.244 320.188 159.22 318.212 161.196C316.388 163.02 314.488 164.464 312.512 165.528C312.056 165.68 311.6 165.908 311.144 166.212C310.688 166.364 310.232 166.592 309.776 166.896H310.004C308.636 168.72 307.268 169.632 305.9 169.632H304.076C303.468 170.696 301.492 171.836 298.148 173.052C294.804 174.42 291.536 175.104 288.344 175.104ZM300.2 120.156C301.568 120.156 302.784 119.928 303.848 119.472C305.064 119.016 306.204 118.484 307.268 117.876C310.916 115.292 313.272 111.948 314.336 107.844C315.4 103.74 315.02 100.624 313.196 98.496C312.892 98.04 312.512 97.736 312.056 97.584C311.6 97.28 311.068 97.128 310.46 97.128C308.788 97.128 306.888 97.66 304.76 98.724C302.784 99.788 300.808 101.308 298.832 103.284C296.856 105.26 295.032 107.616 293.36 110.352L290.396 115.14C290.7 114.988 290.928 114.912 291.08 114.912C291.384 114.76 291.612 114.684 291.764 114.684C293.132 114.684 294.044 115.14 294.5 116.052C294.956 116.964 295.488 117.876 296.096 118.788C296.856 119.7 298.224 120.156 300.2 120.156Z" fill="url(#paint10_linear_154_523)"/>
<g filter="url(#filter0_di_154_523)">
<path d="M150.279 421.999C150.279 421.271 150.208 420.544 150.068 419.83V419.83C149.66 417.755 149.845 415.607 150.603 413.632L152.793 407.921C153.522 406.021 154.653 404.301 156.109 402.879V402.879C159.119 399.939 163.284 398.496 167.468 398.943L168.821 399.087H189.059C191.552 399.087 194.026 399.506 196.379 400.327L196.987 400.539C198.601 401.102 200.125 401.895 201.513 402.892V402.892C204.512 405.049 206.772 408.104 207.966 411.6V411.6C208.676 413.678 209 415.879 208.916 418.073L208.528 428.252C208.439 430.558 207.964 432.832 207.12 434.98V434.98C205.65 438.723 203.113 441.953 199.824 444.269L199.583 444.438C197.732 445.741 195.687 446.744 193.523 447.41L191.388 448.067C185.154 449.985 178.513 450.155 172.19 448.556L171.524 448.388L165.949 446.261C164.127 445.565 162.428 444.583 160.916 443.352L160.668 443.15C158.704 441.55 157.124 439.528 156.047 437.235V437.235C155.697 436.491 155.402 435.722 155.164 434.935L154.502 432.743C154.104 431.425 153.472 430.188 152.636 429.093V429.093C151.107 427.09 150.279 424.639 150.279 422.119V421.999Z" fill="url(#paint11_linear_154_523)" shape-rendering="crispEdges"/>
<path d="M150.279 421.999C150.279 421.271 150.208 420.544 150.068 419.83V419.83C149.66 417.755 149.845 415.607 150.603 413.632L152.793 407.921C153.522 406.021 154.653 404.301 156.109 402.879V402.879C159.119 399.939 163.284 398.496 167.468 398.943L168.821 399.087H189.059C191.552 399.087 194.026 399.506 196.379 400.327L196.987 400.539C198.601 401.102 200.125 401.895 201.513 402.892V402.892C204.512 405.049 206.772 408.104 207.966 411.6V411.6C208.676 413.678 209 415.879 208.916 418.073L208.528 428.252C208.439 430.558 207.964 432.832 207.12 434.98V434.98C205.65 438.723 203.113 441.953 199.824 444.269L199.583 444.438C197.732 445.741 195.687 446.744 193.523 447.41L191.388 448.067C185.154 449.985 178.513 450.155 172.19 448.556L171.524 448.388L165.949 446.261C164.127 445.565 162.428 444.583 160.916 443.352L160.668 443.15C158.704 441.55 157.124 439.528 156.047 437.235V437.235C155.697 436.491 155.402 435.722 155.164 434.935L154.502 432.743C154.104 431.425 153.472 430.188 152.636 429.093V429.093C151.107 427.09 150.279 424.639 150.279 422.119V421.999Z" fill="#F2F2F2" fill-opacity="0.6" shape-rendering="crispEdges"/>
<path d="M150.279 421.999C150.279 421.271 150.208 420.544 150.068 419.83V419.83C149.66 417.755 149.845 415.607 150.603 413.632L152.793 407.921C153.522 406.021 154.653 404.301 156.109 402.879V402.879C159.119 399.939 163.284 398.496 167.468 398.943L168.821 399.087H189.059C191.552 399.087 194.026 399.506 196.379 400.327L196.987 400.539C198.601 401.102 200.125 401.895 201.513 402.892V402.892C204.512 405.049 206.772 408.104 207.966 411.6V411.6C208.676 413.678 209 415.879 208.916 418.073L208.528 428.252C208.439 430.558 207.964 432.832 207.12 434.98V434.98C205.65 438.723 203.113 441.953 199.824 444.269L199.583 444.438C197.732 445.741 195.687 446.744 193.523 447.41L191.388 448.067C185.154 449.985 178.513 450.155 172.19 448.556L171.524 448.388L165.949 446.261C164.127 445.565 162.428 444.583 160.916 443.352L160.668 443.15C158.704 441.55 157.124 439.528 156.047 437.235V437.235C155.697 436.491 155.402 435.722 155.164 434.935L154.502 432.743C154.104 431.425 153.472 430.188 152.636 429.093V429.093C151.107 427.09 150.279 424.639 150.279 422.119V421.999Z" fill="url(#paint12_linear_154_523)" fill-opacity="0.2" shape-rendering="crispEdges"/>
<path d="M150.279 421.999C150.279 421.271 150.208 420.544 150.068 419.83V419.83C149.66 417.755 149.845 415.607 150.603 413.632L152.793 407.921C153.522 406.021 154.653 404.301 156.109 402.879V402.879C159.119 399.939 163.284 398.496 167.468 398.943L168.821 399.087H189.059C191.552 399.087 194.026 399.506 196.379 400.327L196.987 400.539C198.601 401.102 200.125 401.895 201.513 402.892V402.892C204.512 405.049 206.772 408.104 207.966 411.6V411.6C208.676 413.678 209 415.879 208.916 418.073L208.528 428.252C208.439 430.558 207.964 432.832 207.12 434.98V434.98C205.65 438.723 203.113 441.953 199.824 444.269L199.583 444.438C197.732 445.741 195.687 446.744 193.523 447.41L191.388 448.067C185.154 449.985 178.513 450.155 172.19 448.556L171.524 448.388L165.949 446.261C164.127 445.565 162.428 444.583 160.916 443.352L160.668 443.15C158.704 441.55 157.124 439.528 156.047 437.235V437.235C155.697 436.491 155.402 435.722 155.164 434.935L154.502 432.743C154.104 431.425 153.472 430.188 152.636 429.093V429.093C151.107 427.09 150.279 424.639 150.279 422.119V421.999Z" fill="url(#paint13_radial_154_523)" fill-opacity="0.3" style="mix-blend-mode:soft-light" shape-rendering="crispEdges"/>
<path d="M150.279 421.999C150.279 421.271 150.208 420.544 150.068 419.83V419.83C149.66 417.755 149.845 415.607 150.603 413.632L152.793 407.921C153.522 406.021 154.653 404.301 156.109 402.879V402.879C159.119 399.939 163.284 398.496 167.468 398.943L168.821 399.087H189.059C191.552 399.087 194.026 399.506 196.379 400.327L196.987 400.539C198.601 401.102 200.125 401.895 201.513 402.892V402.892C204.512 405.049 206.772 408.104 207.966 411.6V411.6C208.676 413.678 209 415.879 208.916 418.073L208.528 428.252C208.439 430.558 207.964 432.832 207.12 434.98V434.98C205.65 438.723 203.113 441.953 199.824 444.269L199.583 444.438C197.732 445.741 195.687 446.744 193.523 447.41L191.388 448.067C185.154 449.985 178.513 450.155 172.19 448.556L171.524 448.388L165.949 446.261C164.127 445.565 162.428 444.583 160.916 443.352L160.668 443.15C158.704 441.55 157.124 439.528 156.047 437.235V437.235C155.697 436.491 155.402 435.722 155.164 434.935L154.502 432.743C154.104 431.425 153.472 430.188 152.636 429.093V429.093C151.107 427.09 150.279 424.639 150.279 422.119V421.999Z" stroke="url(#paint14_linear_154_523)" stroke-width="2" stroke-linejoin="round" shape-rendering="crispEdges"/>
<path d="M150.279 421.999C150.279 421.271 150.208 420.544 150.068 419.83V419.83C149.66 417.755 149.845 415.607 150.603 413.632L152.793 407.921C153.522 406.021 154.653 404.301 156.109 402.879V402.879C159.119 399.939 163.284 398.496 167.468 398.943L168.821 399.087H189.059C191.552 399.087 194.026 399.506 196.379 400.327L196.987 400.539C198.601 401.102 200.125 401.895 201.513 402.892V402.892C204.512 405.049 206.772 408.104 207.966 411.6V411.6C208.676 413.678 209 415.879 208.916 418.073L208.528 428.252C208.439 430.558 207.964 432.832 207.12 434.98V434.98C205.65 438.723 203.113 441.953 199.824 444.269L199.583 444.438C197.732 445.741 195.687 446.744 193.523 447.41L191.388 448.067C185.154 449.985 178.513 450.155 172.19 448.556L171.524 448.388L165.949 446.261C164.127 445.565 162.428 444.583 160.916 443.352L160.668 443.15C158.704 441.55 157.124 439.528 156.047 437.235V437.235C155.697 436.491 155.402 435.722 155.164 434.935L154.502 432.743C154.104 431.425 153.472 430.188 152.636 429.093V429.093C151.107 427.09 150.279 424.639 150.279 422.119V421.999Z" stroke="#F2F2F2" stroke-opacity="0.6" stroke-width="2" stroke-linejoin="round" shape-rendering="crispEdges"/>
</g>
<g filter="url(#filter1_di_154_523)">
<path d="M156.24 299.433C156.24 298.089 156.107 296.749 155.843 295.432V295.432C155.078 291.609 155.425 287.646 156.844 284.014L160.915 273.589C162.313 270.011 164.472 266.78 167.244 264.121V264.121C172.865 258.73 180.574 256.089 188.32 256.901L191.046 257.187H229.073C233.73 257.187 238.354 257.958 242.759 259.467L243.987 259.887C246.972 260.91 249.834 262.38 252.412 264.201V264.201C257.989 268.14 262.278 273.785 264.521 280.233V280.233C265.863 284.092 266.47 288.168 266.311 292.251L265.586 310.894C265.419 315.188 264.518 319.422 262.923 323.411L262.339 324.872C259.972 330.79 255.914 335.879 250.671 339.504V339.504C246.004 342.731 240.573 344.677 234.919 345.148L216.621 346.672L205.721 347.424C199.394 347.86 193.048 346.934 187.11 344.709L185.59 344.139C182.213 342.873 179.057 341.08 176.24 338.827L175.688 338.385C172.037 335.463 169.092 331.756 167.074 327.538V327.538C166.413 326.156 165.855 324.727 165.405 323.263L164.17 319.25C163.421 316.813 162.235 314.533 160.671 312.519V312.519C157.799 308.823 156.24 304.275 156.24 299.594V299.433Z" fill="url(#paint15_linear_154_523)" shape-rendering="crispEdges"/>
<path d="M156.24 299.433C156.24 298.089 156.107 296.749 155.843 295.432V295.432C155.078 291.609 155.425 287.646 156.844 284.014L160.915 273.589C162.313 270.011 164.472 266.78 167.244 264.121V264.121C172.865 258.73 180.574 256.089 188.32 256.901L191.046 257.187H229.073C233.73 257.187 238.354 257.958 242.759 259.467L243.987 259.887C246.972 260.91 249.834 262.38 252.412 264.201V264.201C257.989 268.14 262.278 273.785 264.521 280.233V280.233C265.863 284.092 266.47 288.168 266.311 292.251L265.586 310.894C265.419 315.188 264.518 319.422 262.923 323.411L262.339 324.872C259.972 330.79 255.914 335.879 250.671 339.504V339.504C246.004 342.731 240.573 344.677 234.919 345.148L216.621 346.672L205.721 347.424C199.394 347.86 193.048 346.934 187.11 344.709L185.59 344.139C182.213 342.873 179.057 341.08 176.24 338.827L175.688 338.385C172.037 335.463 169.092 331.756 167.074 327.538V327.538C166.413 326.156 165.855 324.727 165.405 323.263L164.17 319.25C163.421 316.813 162.235 314.533 160.671 312.519V312.519C157.799 308.823 156.24 304.275 156.24 299.594V299.433Z" fill="#F2F2F2" fill-opacity="0.6" shape-rendering="crispEdges"/>
<path d="M156.24 299.433C156.24 298.089 156.107 296.749 155.843 295.432V295.432C155.078 291.609 155.425 287.646 156.844 284.014L160.915 273.589C162.313 270.011 164.472 266.78 167.244 264.121V264.121C172.865 258.73 180.574 256.089 188.32 256.901L191.046 257.187H229.073C233.73 257.187 238.354 257.958 242.759 259.467L243.987 259.887C246.972 260.91 249.834 262.38 252.412 264.201V264.201C257.989 268.14 262.278 273.785 264.521 280.233V280.233C265.863 284.092 266.47 288.168 266.311 292.251L265.586 310.894C265.419 315.188 264.518 319.422 262.923 323.411L262.339 324.872C259.972 330.79 255.914 335.879 250.671 339.504V339.504C246.004 342.731 240.573 344.677 234.919 345.148L216.621 346.672L205.721 347.424C199.394 347.86 193.048 346.934 187.11 344.709L185.59 344.139C182.213 342.873 179.057 341.08 176.24 338.827L175.688 338.385C172.037 335.463 169.092 331.756 167.074 327.538V327.538C166.413 326.156 165.855 324.727 165.405 323.263L164.17 319.25C163.421 316.813 162.235 314.533 160.671 312.519V312.519C157.799 308.823 156.24 304.275 156.24 299.594V299.433Z" fill="url(#paint16_linear_154_523)" fill-opacity="0.2" shape-rendering="crispEdges"/>
<path d="M156.24 299.433C156.24 298.089 156.107 296.749 155.843 295.432V295.432C155.078 291.609 155.425 287.646 156.844 284.014L160.915 273.589C162.313 270.011 164.472 266.78 167.244 264.121V264.121C172.865 258.73 180.574 256.089 188.32 256.901L191.046 257.187H229.073C233.73 257.187 238.354 257.958 242.759 259.467L243.987 259.887C246.972 260.91 249.834 262.38 252.412 264.201V264.201C257.989 268.14 262.278 273.785 264.521 280.233V280.233C265.863 284.092 266.47 288.168 266.311 292.251L265.586 310.894C265.419 315.188 264.518 319.422 262.923 323.411L262.339 324.872C259.972 330.79 255.914 335.879 250.671 339.504V339.504C246.004 342.731 240.573 344.677 234.919 345.148L216.621 346.672L205.721 347.424C199.394 347.86 193.048 346.934 187.11 344.709L185.59 344.139C182.213 342.873 179.057 341.08 176.24 338.827L175.688 338.385C172.037 335.463 169.092 331.756 167.074 327.538V327.538C166.413 326.156 165.855 324.727 165.405 323.263L164.17 319.25C163.421 316.813 162.235 314.533 160.671 312.519V312.519C157.799 308.823 156.24 304.275 156.24 299.594V299.433Z" fill="url(#paint17_radial_154_523)" fill-opacity="0.3" style="mix-blend-mode:soft-light" shape-rendering="crispEdges"/>
<path d="M156.24 299.433C156.24 298.089 156.107 296.749 155.843 295.432V295.432C155.078 291.609 155.425 287.646 156.844 284.014L160.915 273.589C162.313 270.011 164.472 266.78 167.244 264.121V264.121C172.865 258.73 180.574 256.089 188.32 256.901L191.046 257.187H229.073C233.73 257.187 238.354 257.958 242.759 259.467L243.987 259.887C246.972 260.91 249.834 262.38 252.412 264.201V264.201C257.989 268.14 262.278 273.785 264.521 280.233V280.233C265.863 284.092 266.47 288.168 266.311 292.251L265.586 310.894C265.419 315.188 264.518 319.422 262.923 323.411L262.339 324.872C259.972 330.79 255.914 335.879 250.671 339.504V339.504C246.004 342.731 240.573 344.677 234.919 345.148L216.621 346.672L205.721 347.424C199.394 347.86 193.048 346.934 187.11 344.709L185.59 344.139C182.213 342.873 179.057 341.08 176.24 338.827L175.688 338.385C172.037 335.463 169.092 331.756 167.074 327.538V327.538C166.413 326.156 165.855 324.727 165.405 323.263L164.17 319.25C163.421 316.813 162.235 314.533 160.671 312.519V312.519C157.799 308.823 156.24 304.275 156.24 299.594V299.433Z" stroke="url(#paint18_linear_154_523)" stroke-width="2" stroke-linejoin="round" shape-rendering="crispEdges"/>
<path d="M156.24 299.433C156.24 298.089 156.107 296.749 155.843 295.432V295.432C155.078 291.609 155.425 287.646 156.844 284.014L160.915 273.589C162.313 270.011 164.472 266.78 167.244 264.121V264.121C172.865 258.73 180.574 256.089 188.32 256.901L191.046 257.187H229.073C233.73 257.187 238.354 257.958 242.759 259.467L243.987 259.887C246.972 260.91 249.834 262.38 252.412 264.201V264.201C257.989 268.14 262.278 273.785 264.521 280.233V280.233C265.863 284.092 266.47 288.168 266.311 292.251L265.586 310.894C265.419 315.188 264.518 319.422 262.923 323.411L262.339 324.872C259.972 330.79 255.914 335.879 250.671 339.504V339.504C246.004 342.731 240.573 344.677 234.919 345.148L216.621 346.672L205.721 347.424C199.394 347.86 193.048 346.934 187.11 344.709L185.59 344.139C182.213 342.873 179.057 341.08 176.24 338.827L175.688 338.385C172.037 335.463 169.092 331.756 167.074 327.538V327.538C166.413 326.156 165.855 324.727 165.405 323.263L164.17 319.25C163.421 316.813 162.235 314.533 160.671 312.519V312.519C157.799 308.823 156.24 304.275 156.24 299.594V299.433Z" stroke="#F2F2F2" stroke-opacity="0.6" stroke-width="2" stroke-linejoin="round" shape-rendering="crispEdges"/>
</g>
<g filter="url(#filter2_di_154_523)">
<path d="M277.008 113.995C277.008 109.514 277.451 105.044 278.331 100.65L280.668 88.9729L287.762 65.0946C289.645 58.758 292.441 52.7298 296.063 47.2002L298.933 42.8192C305.792 32.3477 315.409 23.9727 326.724 18.6172L335.344 14.5372C344.438 10.2327 354.374 8 364.435 8H453.849C461.376 8 468.851 9.24974 475.969 11.6982L487.867 15.7912C493.997 17.8999 499.794 20.8744 505.082 24.6242L511.74 29.3458C523.305 37.5473 532.018 49.1587 536.659 62.5558L539.448 70.6064C542.217 78.6012 543.471 87.0427 543.143 95.4974L541.561 136.331C540.881 153.878 533.44 170.481 520.795 182.666L494.077 208.409C486.111 216.085 476.393 221.701 465.765 224.771L421.981 237.418C417.359 238.753 412.609 239.593 407.809 239.926L377.007 242.059C367.267 242.733 357.496 241.303 348.358 237.864L332.136 231.759C325.401 229.224 319.111 225.637 313.501 221.13L307.421 216.246C299.447 209.841 293.021 201.719 288.621 192.486L287.011 189.107C285.572 186.088 284.358 182.968 283.379 179.771L279.991 168.711C278.013 162.257 277.008 155.543 277.008 148.793V113.995Z" fill="url(#paint19_linear_154_523)" shape-rendering="crispEdges"/>
<path d="M277.008 113.995C277.008 109.514 277.451 105.044 278.331 100.65L280.668 88.9729L287.762 65.0946C289.645 58.758 292.441 52.7298 296.063 47.2002L298.933 42.8192C305.792 32.3477 315.409 23.9727 326.724 18.6172L335.344 14.5372C344.438 10.2327 354.374 8 364.435 8H453.849C461.376 8 468.851 9.24974 475.969 11.6982L487.867 15.7912C493.997 17.8999 499.794 20.8744 505.082 24.6242L511.74 29.3458C523.305 37.5473 532.018 49.1587 536.659 62.5558L539.448 70.6064C542.217 78.6012 543.471 87.0427 543.143 95.4974L541.561 136.331C540.881 153.878 533.44 170.481 520.795 182.666L494.077 208.409C486.111 216.085 476.393 221.701 465.765 224.771L421.981 237.418C417.359 238.753 412.609 239.593 407.809 239.926L377.007 242.059C367.267 242.733 357.496 241.303 348.358 237.864L332.136 231.759C325.401 229.224 319.111 225.637 313.501 221.13L307.421 216.246C299.447 209.841 293.021 201.719 288.621 192.486L287.011 189.107C285.572 186.088 284.358 182.968 283.379 179.771L279.991 168.711C278.013 162.257 277.008 155.543 277.008 148.793V113.995Z" fill="#F2F2F2" fill-opacity="0.6" shape-rendering="crispEdges"/>
<path d="M277.008 113.995C277.008 109.514 277.451 105.044 278.331 100.65L280.668 88.9729L287.762 65.0946C289.645 58.758 292.441 52.7298 296.063 47.2002L298.933 42.8192C305.792 32.3477 315.409 23.9727 326.724 18.6172L335.344 14.5372C344.438 10.2327 354.374 8 364.435 8H453.849C461.376 8 468.851 9.24974 475.969 11.6982L487.867 15.7912C493.997 17.8999 499.794 20.8744 505.082 24.6242L511.74 29.3458C523.305 37.5473 532.018 49.1587 536.659 62.5558L539.448 70.6064C542.217 78.6012 543.471 87.0427 543.143 95.4974L541.561 136.331C540.881 153.878 533.44 170.481 520.795 182.666L494.077 208.409C486.111 216.085 476.393 221.701 465.765 224.771L421.981 237.418C417.359 238.753 412.609 239.593 407.809 239.926L377.007 242.059C367.267 242.733 357.496 241.303 348.358 237.864L332.136 231.759C325.401 229.224 319.111 225.637 313.501 221.13L307.421 216.246C299.447 209.841 293.021 201.719 288.621 192.486L287.011 189.107C285.572 186.088 284.358 182.968 283.379 179.771L279.991 168.711C278.013 162.257 277.008 155.543 277.008 148.793V113.995Z" fill="url(#paint20_linear_154_523)" fill-opacity="0.2" shape-rendering="crispEdges"/>
<path d="M277.008 113.995C277.008 109.514 277.451 105.044 278.331 100.65L280.668 88.9729L287.762 65.0946C289.645 58.758 292.441 52.7298 296.063 47.2002L298.933 42.8192C305.792 32.3477 315.409 23.9727 326.724 18.6172L335.344 14.5372C344.438 10.2327 354.374 8 364.435 8H453.849C461.376 8 468.851 9.24974 475.969 11.6982L487.867 15.7912C493.997 17.8999 499.794 20.8744 505.082 24.6242L511.74 29.3458C523.305 37.5473 532.018 49.1587 536.659 62.5558L539.448 70.6064C542.217 78.6012 543.471 87.0427 543.143 95.4974L541.561 136.331C540.881 153.878 533.44 170.481 520.795 182.666L494.077 208.409C486.111 216.085 476.393 221.701 465.765 224.771L421.981 237.418C417.359 238.753 412.609 239.593 407.809 239.926L377.007 242.059C367.267 242.733 357.496 241.303 348.358 237.864L332.136 231.759C325.401 229.224 319.111 225.637 313.501 221.13L307.421 216.246C299.447 209.841 293.021 201.719 288.621 192.486L287.011 189.107C285.572 186.088 284.358 182.968 283.379 179.771L279.991 168.711C278.013 162.257 277.008 155.543 277.008 148.793V113.995Z" fill="url(#paint21_radial_154_523)" fill-opacity="0.3" style="mix-blend-mode:soft-light" shape-rendering="crispEdges"/>
<path d="M277.008 113.995C277.008 109.514 277.451 105.044 278.331 100.65L280.668 88.9729L287.762 65.0946C289.645 58.758 292.441 52.7298 296.063 47.2002L298.933 42.8192C305.792 32.3477 315.409 23.9727 326.724 18.6172L335.344 14.5372C344.438 10.2327 354.374 8 364.435 8H453.849C461.376 8 468.851 9.24974 475.969 11.6982L487.867 15.7912C493.997 17.8999 499.794 20.8744 505.082 24.6242L511.74 29.3458C523.305 37.5473 532.018 49.1587 536.659 62.5558L539.448 70.6064C542.217 78.6012 543.471 87.0427 543.143 95.4974L541.561 136.331C540.881 153.878 533.44 170.481 520.795 182.666L494.077 208.409C486.111 216.085 476.393 221.701 465.765 224.771L421.981 237.418C417.359 238.753 412.609 239.593 407.809 239.926L377.007 242.059C367.267 242.733 357.496 241.303 348.358 237.864L332.136 231.759C325.401 229.224 319.111 225.637 313.501 221.13L307.421 216.246C299.447 209.841 293.021 201.719 288.621 192.486L287.011 189.107C285.572 186.088 284.358 182.968 283.379 179.771L279.991 168.711C278.013 162.257 277.008 155.543 277.008 148.793V113.995Z" stroke="url(#paint22_linear_154_523)" stroke-width="2" stroke-linejoin="round" shape-rendering="crispEdges"/>
<path d="M277.008 113.995C277.008 109.514 277.451 105.044 278.331 100.65L280.668 88.9729L287.762 65.0946C289.645 58.758 292.441 52.7298 296.063 47.2002L298.933 42.8192C305.792 32.3477 315.409 23.9727 326.724 18.6172L335.344 14.5372C344.438 10.2327 354.374 8 364.435 8H453.849C461.376 8 468.851 9.24974 475.969 11.6982L487.867 15.7912C493.997 17.8999 499.794 20.8744 505.082 24.6242L511.74 29.3458C523.305 37.5473 532.018 49.1587 536.659 62.5558L539.448 70.6064C542.217 78.6012 543.471 87.0427 543.143 95.4974L541.561 136.331C540.881 153.878 533.44 170.481 520.795 182.666L494.077 208.409C486.111 216.085 476.393 221.701 465.765 224.771L421.981 237.418C417.359 238.753 412.609 239.593 407.809 239.926L377.007 242.059C367.267 242.733 357.496 241.303 348.358 237.864L332.136 231.759C325.401 229.224 319.111 225.637 313.501 221.13L307.421 216.246C299.447 209.841 293.021 201.719 288.621 192.486L287.011 189.107C285.572 186.088 284.358 182.968 283.379 179.771L279.991 168.711C278.013 162.257 277.008 155.543 277.008 148.793V113.995Z" stroke="#F2F2F2" stroke-opacity="0.6" stroke-width="2" stroke-linejoin="round" shape-rendering="crispEdges"/>
</g>
<path opacity="0.8" fill-rule="evenodd" clip-rule="evenodd" d="M209.884 331.368C204.716 329.24 200.916 327.036 198.484 324.756C196.204 322.324 195.292 320.196 195.748 318.372C196.052 317.46 196.584 316.624 197.344 315.864C198.104 315.104 199.776 314.8 202.36 314.952C205.096 314.952 209.276 315.636 214.9 317.004C216.572 317.004 218.244 316.928 219.916 316.776C221.588 316.624 223.108 316.396 224.476 316.092C225.996 315.788 227.212 315.408 228.124 314.952C228.884 314.648 229.112 314.268 228.808 313.812C228.504 313.204 227.972 312.596 227.212 311.988C226.604 311.228 225.92 310.772 225.16 310.62C224.4 310.316 223.716 310.164 223.108 310.164C222.804 309.404 222.12 308.644 221.056 307.884C220.144 307.124 219.004 306.288 217.636 305.376C214.292 302.64 211.252 300.208 208.516 298.08C205.78 295.952 204.716 294.356 205.324 293.292V292.38V292.152C204.26 292.152 203.272 290.708 202.36 287.82C201.448 284.78 200.992 282.044 200.992 279.612C200.992 276.572 201.6 273.532 202.816 270.492C204.184 267.452 205.856 264.564 207.832 261.828C209.122 260.169 210.412 258.623 211.702 257.187L229.072 257.187C231.936 257.187 234.787 257.479 237.583 258.054C236.373 258.902 235.348 259.704 234.508 260.46C233.9 261.524 233.444 262.208 233.14 262.512C232.988 262.816 232.608 262.968 232 262.968C232 262.36 231.62 262.436 230.86 263.196C230.1 263.956 229.188 265.02 228.124 266.388C227.06 267.756 225.996 269.2 224.932 270.72C223.868 272.24 223.032 273.456 222.424 274.368C222.272 275.736 221.892 277.028 221.284 278.244C220.828 279.308 220.676 280.448 220.828 281.664C220.98 283.184 221.74 284.628 223.108 285.996C224.476 287.364 226.452 289.112 229.036 291.24C234.356 295.192 238.308 298.308 240.892 300.588C243.628 302.868 245.528 304.692 246.592 306.06C247.656 307.428 248.34 308.796 248.644 310.164C251.228 314.876 251.532 318.98 249.556 322.476C247.58 325.82 244.54 328.404 240.436 330.228C238.916 330.988 236.256 331.672 232.456 332.28C228.656 333.04 224.628 333.344 220.372 333.192C216.268 333.192 212.772 332.584 209.884 331.368ZM250.373 262.871C249.842 263.422 249.266 263.987 248.644 264.564L247.96 265.476C247.504 265.932 247.276 266.464 247.276 267.072C247.276 267.68 247.428 268.364 247.732 269.124L248.416 270.036C249.024 270.948 249.708 271.708 250.468 272.316C251.228 272.924 252.064 273.532 252.976 274.14C254.344 275.204 256.32 275.128 258.904 273.912C259.554 273.606 260.214 273.276 260.883 272.922C258.63 269.532 255.751 266.56 252.411 264.201C251.749 263.734 251.069 263.29 250.373 262.871Z" fill="url(#paint23_linear_154_523)"/>
<path opacity="0.8" fill-rule="evenodd" clip-rule="evenodd" d="M278.33 100.65C277.45 105.044 277.007 109.514 277.007 113.995V135.686C277.077 135.114 277.167 134.473 277.276 133.764C277.732 131.788 278.492 129.356 279.556 126.468L280.696 124.188L282.52 125.784C284.648 127.304 286.928 128.52 289.36 129.432C291.944 130.344 294.832 130.8 298.024 130.8C299.24 130.8 300.38 130.724 301.444 130.572C302.66 130.268 303.876 129.812 305.092 129.204C309.5 127.38 313.68 124.188 317.632 119.628C321.736 115.068 324.776 110.28 326.752 105.264C327.512 103.592 328.044 101.92 328.348 100.248C328.652 98.424 328.804 96.752 328.804 95.232C328.804 89.456 327.436 85.048 324.7 82.008C322.116 78.968 319.076 76.916 315.58 75.852C313.604 75.092 311.476 74.636 309.196 74.484C307.068 74.18 305.092 74.028 303.268 74.028C301.596 74.028 299.848 74.256 298.024 74.712C296.352 75.016 294.756 75.548 293.236 76.308C289.428 78.0002 285.621 80.9352 281.813 85.113L280.667 88.9728L278.33 100.65ZM330.022 230.923C331.284 228.482 332.249 226.548 332.915 225.12C334.131 222.688 334.739 221.016 334.739 220.104C334.891 219.192 334.663 218.508 334.055 218.052C333.599 217.596 332.991 216.836 332.231 215.772C330.711 213.34 328.583 212.048 325.847 211.896C323.111 211.592 320.451 212.124 317.867 213.492C317.259 214.252 316.195 216.152 314.675 219.192C314.331 219.846 313.983 220.527 313.631 221.235C318.616 225.219 324.134 228.48 330.022 230.923ZM280.039 168.87C281.413 169.026 282.848 169.104 284.344 169.104C287.536 169.104 290.804 168.42 294.148 167.052C297.492 165.836 299.468 164.696 300.076 163.632H301.9C303.268 163.632 304.636 162.72 306.004 160.896H305.776C306.232 160.592 306.688 160.364 307.144 160.212C307.6 159.908 308.056 159.68 308.512 159.528C310.488 158.464 312.388 157.02 314.212 155.196C316.188 153.22 317.784 151.244 319 149.268C320.368 147.292 321.052 145.848 321.052 144.936C321.052 142.808 319.988 141.06 317.86 139.692C315.884 138.172 313.832 137.564 311.704 137.868C310.944 137.868 310.26 138.172 309.652 138.78C309.196 139.084 308.512 139.464 307.6 139.92C306.688 140.224 304.94 141.06 302.356 142.428L302.584 143.112L301.672 143.568C299.696 144.632 297.796 145.924 295.972 147.444C294.3 148.812 292.096 149.8 289.36 150.408C288.752 150.56 287.992 150.712 287.08 150.864H284.572C283.052 150.864 281.76 150.636 280.696 150.18C279.784 149.724 279.024 149.116 278.416 148.356C277.656 147.14 277.2 145.62 277.048 143.796C277.033 143.612 277.02 143.428 277.007 143.245V148.793C277.007 155.543 278.012 162.256 279.99 168.711L280.039 168.87ZM299.848 113.472C298.784 113.928 297.568 114.156 296.2 114.156C294.224 114.156 292.856 113.7 292.096 112.788C291.488 111.876 290.956 110.964 290.5 110.052C290.044 109.14 289.132 108.684 287.764 108.684C287.612 108.684 287.384 108.76 287.08 108.912C286.928 108.912 286.7 108.988 286.396 109.14L289.36 104.352C291.032 101.616 292.856 99.26 294.832 97.284C296.808 95.308 298.784 93.788 300.76 92.724C302.888 91.66 304.788 91.128 306.46 91.128C307.068 91.128 307.6 91.28 308.056 91.584C308.512 91.736 308.892 92.04 309.196 92.496C311.02 94.624 311.4 97.74 310.336 101.844C309.272 105.948 306.916 109.292 303.268 111.876C302.204 112.484 301.064 113.016 299.848 113.472Z" fill="url(#paint24_linear_154_523)"/>
<defs>
<filter id="filter0_di_154_523" x="131.857" y="372.863" width="92.9729" height="94.6793" filterUnits="userSpaceOnUse" color-interpolation-filters="sRGB">
<feFlood flood-opacity="0" result="BackgroundImageFix"/>
<feColorMatrix in="SourceAlpha" type="matrix" values="0 0 0 0 0 0 0 0 0 0 0 0 0 0 0 0 0 0 127 0" result="hardAlpha"/>
<feOffset dx="3" dy="5"/>
<feGaussianBlur stdDeviation="5.95"/>
<feComposite in2="hardAlpha" operator="out"/>
<feColorMatrix type="matrix" values="0 0 0 0 0 0 0 0 0 0 0 0 0 0 0 0 0 0 0.07 0"/>
<feBlend mode="normal" in2="BackgroundImageFix" result="effect1_dropShadow_154_523"/>
<feBlend mode="normal" in="SourceGraphic" in2="effect1_dropShadow_154_523" result="shape"/>
<feColorMatrix in="SourceAlpha" type="matrix" values="0 0 0 0 0 0 0 0 0 0 0 0 0 0 0 0 0 0 127 0" result="hardAlpha"/>
<feOffset dx="-17" dy="-25"/>
<feGaussianBlur stdDeviation="17.3"/>
<feComposite in2="hardAlpha" operator="arithmetic" k2="-1" k3="1"/>
<feColorMatrix type="matrix" values="0 0 0 0 0 0 0 0 0 0 0 0 0 0 0 0 0 0 0.1 0"/>
<feBlend mode="normal" in2="shape" result="effect2_innerShadow_154_523"/>
</filter>
<filter id="filter1_di_154_523" x="137.447" y="230.757" width="144.789" height="134.672" filterUnits="userSpaceOnUse" color-interpolation-filters="sRGB">
<feFlood flood-opacity="0" result="BackgroundImageFix"/>
<feColorMatrix in="SourceAlpha" type="matrix" values="0 0 0 0 0 0 0 0 0 0 0 0 0 0 0 0 0 0 127 0" result="hardAlpha"/>
<feOffset dx="3" dy="5"/>
<feGaussianBlur stdDeviation="5.95"/>
<feComposite in2="hardAlpha" operator="out"/>
<feColorMatrix type="matrix" values="0 0 0 0 0 0 0 0 0 0 0 0 0 0 0 0 0 0 0.07 0"/>
<feBlend mode="normal" in2="BackgroundImageFix" result="effect1_dropShadow_154_523"/>
<feBlend mode="normal" in="SourceGraphic" in2="effect1_dropShadow_154_523" result="shape"/>
<feColorMatrix in="SourceAlpha" type="matrix" values="0 0 0 0 0 0 0 0 0 0 0 0 0 0 0 0 0 0 127 0" result="hardAlpha"/>
<feOffset dx="-17" dy="-25"/>
<feGaussianBlur stdDeviation="17.3"/>
<feComposite in2="hardAlpha" operator="arithmetic" k2="-1" k3="1"/>
<feColorMatrix type="matrix" values="0 0 0 0 0 0 0 0 0 0 0 0 0 0 0 0 0 0 0.1 0"/>
<feBlend mode="normal" in2="shape" result="effect2_innerShadow_154_523"/>
</filter>
<filter id="filter2_di_154_523" x="259.008" y="-18" width="300.086" height="278.121" filterUnits="userSpaceOnUse" color-interpolation-filters="sRGB">
<feFlood flood-opacity="0" result="BackgroundImageFix"/>
<feColorMatrix in="SourceAlpha" type="matrix" values="0 0 0 0 0 0 0 0 0 0 0 0 0 0 0 0 0 0 127 0" result="hardAlpha"/>
<feOffset dx="3" dy="5"/>
<feGaussianBlur stdDeviation="5.95"/>
<feComposite in2="hardAlpha" operator="out"/>
<feColorMatrix type="matrix" values="0 0 0 0 0 0 0 0 0 0 0 0 0 0 0 0 0 0 0.07 0"/>
<feBlend mode="normal" in2="BackgroundImageFix" result="effect1_dropShadow_154_523"/>
<feBlend mode="normal" in="SourceGraphic" in2="effect1_dropShadow_154_523" result="shape"/>
<feColorMatrix in="SourceAlpha" type="matrix" values="0 0 0 0 0 0 0 0 0 0 0 0 0 0 0 0 0 0 127 0" result="hardAlpha"/>
<feOffset dx="-17" dy="-25"/>
<feGaussianBlur stdDeviation="17.3"/>
<feComposite in2="hardAlpha" operator="arithmetic" k2="-1" k3="1"/>
<feColorMatrix type="matrix" values="0 0 0 0 0 0 0 0 0 0 0 0 0 0 0 0 0 0 0.1 0"/>
<feBlend mode="normal" in2="shape" result="effect2_innerShadow_154_523"/>
</filter>
<linearGradient id="paint0_linear_154_523" x1="751.493" y1="349.918" x2="201.116" y2="-145.078" gradientUnits="userSpaceOnUse">
<stop stop-color="#00A7D5"/>
<stop offset="1" stop-color="#6DDEFF"/>
</linearGradient>
<linearGradient id="paint1_linear_154_523" x1="751.493" y1="349.918" x2="201.116" y2="-145.078" gradientUnits="userSpaceOnUse">
<stop stop-color="#00A7D5"/>
<stop offset="1" stop-color="#6DDEFF"/>
</linearGradient>
<linearGradient id="paint2_linear_154_523" x1="751.493" y1="349.918" x2="201.116" y2="-145.078" gradientUnits="userSpaceOnUse">
<stop stop-color="#00A7D5"/>
<stop offset="1" stop-color="#6DDEFF"/>
</linearGradient>
<linearGradient id="paint3_linear_154_523" x1="751.493" y1="349.918" x2="201.116" y2="-145.078" gradientUnits="userSpaceOnUse">
<stop stop-color="#00A7D5"/>
<stop offset="1" stop-color="#6DDEFF"/>
</linearGradient>
<linearGradient id="paint4_linear_154_523" x1="751.493" y1="349.918" x2="201.116" y2="-145.078" gradientUnits="userSpaceOnUse">
<stop stop-color="#00A7D5"/>
<stop offset="1" stop-color="#6DDEFF"/>
</linearGradient>
<linearGradient id="paint5_linear_154_523" x1="751.493" y1="349.918" x2="201.116" y2="-145.078" gradientUnits="userSpaceOnUse">
<stop stop-color="#00A7D5"/>
<stop offset="1" stop-color="#6DDEFF"/>
</linearGradient>
<linearGradient id="paint6_linear_154_523" x1="751.493" y1="349.918" x2="201.116" y2="-145.078" gradientUnits="userSpaceOnUse">
<stop stop-color="#00A7D5"/>
<stop offset="1" stop-color="#6DDEFF"/>
</linearGradient>
<linearGradient id="paint7_linear_154_523" x1="751.493" y1="349.918" x2="201.116" y2="-145.078" gradientUnits="userSpaceOnUse">
<stop stop-color="#00A7D5"/>
<stop offset="1" stop-color="#6DDEFF"/>
</linearGradient>
<linearGradient id="paint8_linear_154_523" x1="751.493" y1="349.918" x2="201.116" y2="-145.078" gradientUnits="userSpaceOnUse">
<stop stop-color="#00A7D5"/>
<stop offset="1" stop-color="#6DDEFF"/>
</linearGradient>
<linearGradient id="paint9_linear_154_523" x1="751.493" y1="349.918" x2="201.116" y2="-145.078" gradientUnits="userSpaceOnUse">
<stop stop-color="#00A7D5"/>
<stop offset="1" stop-color="#6DDEFF"/>
</linearGradient>
<linearGradient id="paint10_linear_154_523" x1="751.493" y1="349.918" x2="201.116" y2="-145.078" gradientUnits="userSpaceOnUse">
<stop stop-color="#00A7D5"/>
<stop offset="1" stop-color="#6DDEFF"/>
</linearGradient>
<linearGradient id="paint11_linear_154_523" x1="158.832" y1="398.237" x2="201.696" y2="449.324" gradientUnits="userSpaceOnUse">
<stop stop-color="#E0E0E0"/>
<stop offset="0.23753" stop-color="#E2E2E0"/>
<stop offset="1" stop-color="#E7E7E7"/>
</linearGradient>
<linearGradient id="paint12_linear_154_523" x1="183.168" y1="396.411" x2="179.211" y2="450.998" gradientUnits="userSpaceOnUse">
<stop stop-color="#75D6FF"/>
<stop offset="0.338542" stop-color="white" stop-opacity="0"/>
</linearGradient>
<radialGradient id="paint13_radial_154_523" cx="0" cy="0" r="1" gradientUnits="userSpaceOnUse" gradientTransform="translate(170.86 419.302) rotate(42.2397) scale(39.484 44.8007)">
<stop stop-color="white"/>
<stop offset="0.679664" stop-color="#F2F2F2" stop-opacity="0.658678"/>
<stop offset="1" stop-color="#A0A0A0" stop-opacity="0"/>
</radialGradient>
<linearGradient id="paint14_linear_154_523" x1="158.832" y1="398.237" x2="201.696" y2="449.324" gradientUnits="userSpaceOnUse">
<stop stop-color="white"/>
<stop offset="1" stop-color="#A8A8A8" stop-opacity="0"/>
</linearGradient>
<linearGradient id="paint15_linear_154_523" x1="172.296" y1="255.62" x2="246.353" y2="350.167" gradientUnits="userSpaceOnUse">
<stop stop-color="#E0E0E0"/>
<stop offset="0.23753" stop-color="#E2E2E0"/>
<stop offset="1" stop-color="#E7E7E7"/>
</linearGradient>
<linearGradient id="paint16_linear_154_523" x1="217.98" y1="252.421" x2="211.501" y2="348.146" gradientUnits="userSpaceOnUse">
<stop stop-color="#75D6FF"/>
<stop offset="0.338542" stop-color="white" stop-opacity="0"/>
</linearGradient>
<radialGradient id="paint17_radial_154_523" cx="0" cy="0" r="1" gradientUnits="userSpaceOnUse" gradientTransform="translate(194.875 292.537) rotate(40.2873) scale(71.9355 80.8952)">
<stop stop-color="white"/>
<stop offset="0.679664" stop-color="#F2F2F2" stop-opacity="0.658678"/>
<stop offset="1" stop-color="#A0A0A0" stop-opacity="0"/>
</radialGradient>
<linearGradient id="paint18_linear_154_523" x1="172.296" y1="255.62" x2="246.353" y2="350.167" gradientUnits="userSpaceOnUse">
<stop stop-color="white"/>
<stop offset="1" stop-color="#A8A8A8" stop-opacity="0"/>
</linearGradient>
<linearGradient id="paint19_linear_154_523" x1="319.01" y1="7.99999" x2="509.85" y2="236.383" gradientUnits="userSpaceOnUse">
<stop stop-color="#E0E0E0"/>
<stop offset="0.23753" stop-color="#E2E2E0"/>
<stop offset="1" stop-color="#E7E7E7"/>
</linearGradient>
<linearGradient id="paint20_linear_154_523" x1="427.883" y1="-0.134181" x2="410.323" y2="243.083" gradientUnits="userSpaceOnUse">
<stop stop-color="#75D6FF"/>
<stop offset="0.338542" stop-color="white" stop-opacity="0"/>
</linearGradient>
<radialGradient id="paint21_radial_154_523" cx="0" cy="0" r="1" gradientUnits="userSpaceOnUse" gradientTransform="translate(372.821 101.856) rotate(42.1232) scale(176.314 199.975)">
<stop stop-color="white"/>
<stop offset="0.679664" stop-color="#F2F2F2" stop-opacity="0.658678"/>
<stop offset="1" stop-color="#A0A0A0" stop-opacity="0"/>
</radialGradient>
<linearGradient id="paint22_linear_154_523" x1="319.01" y1="7.99999" x2="509.85" y2="236.383" gradientUnits="userSpaceOnUse">
<stop stop-color="white"/>
<stop offset="1" stop-color="#A8A8A8" stop-opacity="0"/>
</linearGradient>
<linearGradient id="paint23_linear_154_523" x1="262.748" y1="336.191" x2="180.205" y2="313.232" gradientUnits="userSpaceOnUse">
<stop stop-color="#00A7D5"/>
<stop offset="1" stop-color="#6DDEFF"/>
</linearGradient>
<linearGradient id="paint24_linear_154_523" x1="336.435" y1="237.033" x2="258.796" y2="227.765" gradientUnits="userSpaceOnUse">
<stop stop-color="#00A7D5"/>
<stop offset="1" stop-color="#6DDEFF"/>
</linearGradient>
</defs>
</svg>
