<svg width="917" height="439" viewBox="0 0 917 439" fill="none" xmlns="http://www.w3.org/2000/svg">
<path d="M252 100.5L255.5 83L265 51L283 23.5L321 5.5H432L462.5 16L493.5 38L507 77L504 154.5L448 208.5L384 227L333.5 230.5L295 216L269.5 195.5L259.5 174.5L252 150V125V100.5Z" fill="#00B6E7"/>
<path d="M136.5 282.5L135 275L143 254.5L155.5 242.5L169.788 244H212.882L224.724 248.06L236.759 256.567L242 271.647L240.835 301.613L234.5 317.467L220 327.5L194.247 329.647L174.641 331L159.694 325.393L149.794 317.467L145.912 309.347L143 299.873L136.5 291.5V282.5Z" fill="#00B6E7"/>
<path d="M130.799 400.695L130 396.627L134.262 385.508L140.921 379L148.532 379.814H171.489L177.797 382.016L184.208 386.629L187 394.808L186.38 411.061L183.005 419.66L175.28 425.102L161 429.5L151.117 427L143.155 423.959L137.881 419.66L135.813 415.256L134.262 410.118L130.799 405.576V400.695Z" fill="#00B6E7"/>
<path d="M321.98 0.809097C306.303 3.48878 291.998 11.5932 278.215 25.5798C264.041 39.8933 254.373 56.7557 249.866 74.9906C246.927 86.8858 246.535 90.8073 246.6 111.526C246.666 146.231 250.128 166.427 259.599 186.034C265.478 198.322 274.231 208.517 285.662 216.36C291.867 220.609 295.264 221.981 302.253 222.962C308.785 223.811 312.117 224.988 322.96 230.02C332.889 234.661 337.134 235.576 344.254 234.661C351.048 233.746 378.744 233.811 382.14 234.726C385.733 235.706 388.346 235.184 391.22 232.831C394.878 229.89 397.099 229.04 401.998 228.517C409.51 227.733 418.001 225.249 428.583 220.805C434.07 218.452 441.059 215.903 443.999 215.119C450.139 213.485 453.274 211.524 463.726 203.158C471.368 197.014 476.333 191.916 488.874 177.668C501.938 162.767 506.315 155.447 509.385 143.159C511.606 134.271 512.063 128.977 512.52 106.624C512.781 91.3302 512.716 83.4872 512.128 78.8468C509.842 60.5465 501.742 40.024 493.055 30.5471C483.322 19.8283 452.556 5.6456 431.261 2.0509C424.403 0.874451 420.418 0.743744 383.512 0.678391C361.303 0.678391 339.813 0.416946 335.697 0.220871C330.08 -0.105911 326.618 0.0247955 321.98 0.809097ZM431.588 11.7239C442.301 14.1422 452.295 17.8676 466.012 24.7956C475.679 29.6321 479.599 32.3771 485.151 38.3247C488.743 42.1808 490.572 44.9259 493.381 50.612C501.938 67.932 504.29 85.7094 502.265 116.755C501.416 129.303 500.24 136.166 497.431 144.793C494.492 153.617 492.728 156.688 486.588 163.159C483.844 166.035 479.468 171.002 476.79 174.27C468.429 184.596 452.491 200.021 447.591 202.57C446.808 203.027 438.969 206.099 430.151 209.563C415.911 215.053 412.841 215.968 402.52 217.994C384.818 221.524 384.753 221.524 381.618 223.811C378.678 225.903 378.613 225.903 372.669 225.576C365.549 225.249 350.264 225.249 341.25 225.576C333.999 225.903 331.582 225.184 325.965 221.132C322.568 218.648 317.212 216.883 308.132 215.184C300.424 213.746 295.591 211.916 291.671 208.91C290.169 207.798 286.772 205.38 284.029 203.55C278.346 199.694 274.361 194.465 269.136 183.943C259.403 164.531 255.745 145.185 255.68 113.16C255.68 88.2583 257.835 76.0364 264.563 62.5726C273.447 44.9259 276.256 40.743 284.16 33.0307C295.525 22.1159 303.56 16.7565 314.207 13.0311L320.347 10.8743L349.415 10.4821C365.418 10.286 389.064 10.1553 401.998 10.2207C423.031 10.3514 426.166 10.4821 431.588 11.7239Z" fill="#1E1E1E"/>
<path d="M159.332 237.275C156.981 238.256 152.931 240.413 150.318 242.047C145.876 244.726 145.092 245.576 140.716 252.242C135.425 260.281 133.922 264.334 132.355 274.595C131.114 282.503 131.506 284.595 136.927 302.568C140.258 313.352 150.122 326.489 157.895 330.411C168.216 335.574 182.194 337.992 196.565 337.012C214.528 335.77 225.763 330.476 238.566 317.143C244.249 311.195 244.967 310.15 246.208 306.163C250.585 292.046 248.952 270.935 242.746 261.785C240.33 258.125 232.752 251.589 227.004 248.19C222.497 245.51 217.663 243.877 200.484 239.236C186.963 235.576 179.973 234.726 173.637 235.968C170.763 236.556 169.391 236.556 168.934 236.099C167.693 234.857 163.709 235.38 159.332 237.275ZM197.218 248.386C202.444 249.889 209.433 252.046 212.83 253.092C232.491 259.432 239.807 267.863 240.787 285.379C241.244 293.287 240.264 299.627 237.847 304.529C234.385 311.653 223.411 321.457 215.638 324.529C214.071 325.117 208.192 326.163 202.574 326.881C193.56 328.058 191.208 328.123 183.501 327.535C172.919 326.685 170.175 326.032 164.231 323.091C156.85 319.431 151.886 313.941 147.052 304.006C141.891 293.418 140.324 288.189 139.932 280.477C139.54 273.484 140.52 268.451 143.459 262.504C145.68 257.863 150.448 251.981 153.845 249.563C156.654 247.602 157.176 247.537 177.295 245.249C182.651 244.661 186.179 245.249 197.218 248.386Z" fill="#1E1E1E"/>
<path d="M553.541 355.377C552.823 355.573 550.014 356.423 547.336 357.273C544.658 358.122 541.196 359.168 539.693 359.56C537.538 360.083 536.885 360.606 536.297 362.305C535.382 364.854 535.382 374.462 536.297 398.448C536.95 415.572 537.146 417.729 538.452 420.605L539.824 423.807L541.849 422.108L543.809 420.409L550.341 422.37C553.933 423.481 559.159 424.526 562.164 424.722C567.063 425.049 568.043 424.919 573.856 422.892C577.318 421.716 582.544 419.559 585.483 418.056C591.95 414.853 593.191 412.893 593.191 406.03C593.191 400.082 591.95 397.533 586.398 392.239L581.89 387.926L582.936 385.508C586.985 375.835 579.212 361.26 567.585 356.881C564.058 355.573 556.154 354.724 553.541 355.377ZM565.952 365.116C569.022 366.619 570.198 367.665 571.178 369.691C571.896 371.129 573.138 373.351 573.987 374.593C575.75 377.338 575.816 379.952 574.183 383.416C572.811 386.357 571.309 387.926 568.826 388.906C567.455 389.364 566.997 390.083 566.801 391.913C566.475 394.984 567.52 395.703 573.791 396.815C576.338 397.272 579.212 398.056 580.192 398.579C583.915 400.475 585.744 405.965 583.589 409.037C582.086 411.128 576.795 414.265 572.55 415.442C567.128 417.01 559.877 416.487 550.798 413.808L543.613 411.716L543.221 390.083C542.763 365.377 542.568 366.358 548.12 364.201C553.345 362.109 560.727 362.501 565.952 365.116Z" fill="#1E1E1E"/>
<path d="M676.344 357.011C672.555 357.861 670.138 358.972 670.073 359.822C669.747 362.567 670.334 397.664 670.792 405.769C671.38 415.05 672.817 423.742 674.188 426.356C674.842 427.729 676.083 427.794 679.087 426.749C681.243 425.964 681.243 425.899 681.243 421.847C681.243 419.559 681.374 417.729 681.504 417.729C681.635 417.729 683.007 418.187 684.574 418.775C690.976 421.128 701.166 419.298 708.612 414.527C715.471 410.082 721.284 401.782 721.284 396.357C721.284 394.2 720.762 392.762 718.998 390.148C717.692 388.253 715.993 385.312 715.21 383.612C714.034 380.998 712.989 380.018 709.07 377.73L704.432 374.92L703.975 370.867C703.452 365.965 702.276 363.547 699.075 360.933C694.307 357.011 684.117 355.247 676.344 357.011ZM688.102 366.815C691.694 367.796 694.307 369.822 694.307 371.521C694.307 372.305 693.197 373.939 691.694 375.312C689.473 377.338 689.081 378.122 689.081 380.344C689.081 381.848 689.408 383.22 689.865 383.481C690.257 383.743 692.935 384.135 695.744 384.397C700.447 384.854 701.1 385.05 703.909 387.468C708.482 391.324 710.703 394.396 711.094 397.272C711.356 399.494 711.16 400.213 709.592 401.913C708.547 403.089 705.216 405.442 702.146 407.272C696.136 410.801 693.719 411.259 690.323 409.559C689.081 408.84 687.644 408.644 686.142 408.971C684.182 409.298 683.595 409.102 681.962 407.337C679.61 404.788 679.479 403.808 678.957 382.24L678.565 366.096H682.027C683.921 366.096 686.665 366.423 688.102 366.815Z" fill="#1E1E1E"/>
<path d="M739.574 364.789C734.153 365.9 734.153 365.965 734.153 373.808C734.153 387.011 736.047 415.311 737.157 419.167C737.419 419.951 738.137 420.344 739.378 420.344C742.775 420.344 743.297 419.821 743.297 416.291C743.297 413.481 743.428 413.089 744.408 413.416C744.996 413.677 746.759 414.134 748.392 414.527C760.999 417.337 779.158 402.109 774.129 392.893C769.099 383.678 768.707 383.155 765.245 381.194C761.914 379.233 761.783 379.037 761.391 375.835C760.803 371.194 758.909 368.449 754.794 366.423C750.94 364.528 744.212 363.809 739.574 364.789ZM751.267 373.743C754.141 375.377 754.337 377.338 751.854 379.233C749.634 380.867 749.046 382.566 749.83 384.789C750.352 386.161 750.875 386.357 753.879 386.357C758.125 386.357 761.195 388.057 764.461 392.239C766.878 395.246 767.401 397.795 766.16 400.082C765.833 400.736 763.286 402.697 760.607 404.331C756.427 406.945 755.382 407.337 753.226 407.076C742.644 405.507 741.991 404.984 741.991 397.141C741.991 394.2 741.795 387.272 741.534 381.782L741.142 371.782L745.126 372.175C747.347 372.371 750.156 373.09 751.267 373.743Z" fill="#1E1E1E"/>
<path d="M611.481 366.227C610.109 367.991 607.365 374.07 605.798 378.841C600.833 394.135 602.924 409.167 611.089 416.357C616.772 421.324 625.329 422.5 631.469 419.167C639.046 415.115 651.196 403.808 651.196 400.801C651.196 400.213 652.371 396.357 653.808 392.239C656.356 384.985 657.336 378.58 656.16 376.684C655.245 375.246 651.065 376.161 649.758 378.122C649.497 378.514 647.734 383.612 645.839 389.494L642.443 400.148L636.368 405.965C629.509 412.566 627.876 413.219 621.867 411.847C617.359 410.866 614.681 408.252 612.656 402.893C610.566 397.403 611.089 389.821 614.159 380.148C615.465 376.161 616.641 371.455 616.902 369.625C617.294 366.488 617.229 366.227 615.792 365.835C613.506 365.246 612.199 365.377 611.481 366.227Z" fill="#1E1E1E"/>
<path d="M394.029 369.495C393.245 370.802 393.571 377.207 394.682 381.325C395.662 385.116 395.662 385.116 394.225 385.704C388.607 387.795 380.769 388.122 372.538 386.553C369.338 385.965 365.614 385.442 364.177 385.442H361.695L362.152 377.403L362.61 369.364H360.911C359.997 369.364 358.69 370.018 357.972 370.802C355.49 373.416 354.967 376.358 354.967 387.665C354.967 402.828 356.992 411.651 361.891 417.86C364.243 420.801 365.941 420.932 367.574 418.252C368.554 416.553 368.554 416.226 367.117 411.716C365.614 407.076 361.891 392.697 362.087 392.436C362.152 392.37 364.112 392.893 366.398 393.677C372.734 395.769 385.733 395.769 392.461 393.677C395.074 392.828 397.36 392.305 397.556 392.436C397.687 392.632 398.862 396.684 400.104 401.455C402.324 410.017 404.545 415.769 405.656 415.769C407.681 415.769 408.073 409.298 406.57 400.605C404.741 390.148 399.908 371.325 398.732 370.018C397.425 368.58 394.813 368.253 394.029 369.495Z" fill="#1E1E1E"/>
<path d="M275.864 370.41C272.402 371.652 267.829 375.573 266.719 378.253C266.262 379.364 265.543 382.958 265.151 386.226C263.845 397.076 266.327 406.618 273.12 416.814C280.044 427.206 288.601 432.042 304.474 434.788C309.896 435.703 314.468 434.853 318.714 432.108C322.568 429.624 324.201 426.618 325.573 419.69C326.161 416.618 326.749 413.677 326.944 413.089C327.206 412.174 328.969 411.912 339.029 411.52C348.108 411.128 350.982 410.801 351.766 410.082C352.877 408.906 352.419 406.88 350.656 404.984C349.415 403.742 348.5 403.677 324.985 403.677C298.465 403.677 298.465 403.677 298.465 407.337C298.465 410.474 299.706 410.997 307.74 411.455C311.79 411.716 315.971 412.043 316.95 412.239C318.714 412.631 318.779 412.762 318.387 415.311C317.669 420.082 316.754 422.762 315.513 424.33C314.468 425.703 313.554 425.899 309.112 426.095C299.314 426.552 290.496 423.219 283.506 416.487C278.803 411.978 275.407 406.814 273.643 401.782C271.095 394.396 272.402 383.612 276.256 379.691C277.889 378.122 278.607 377.861 281.939 377.861C284.029 377.861 289.646 378.514 294.415 379.298C300.816 380.344 303.429 380.54 304.213 380.083C305.585 379.168 306.76 375.442 305.911 374.593C305.062 373.743 283.441 369.364 280.632 369.429C279.456 369.429 277.301 369.887 275.864 370.41Z" fill="#1E1E1E"/>
<path d="M439.949 371.717C439.034 372.697 438.055 374.527 437.859 375.835L437.467 378.188L429.563 377.991C419.765 377.795 418.328 378.318 418.328 382.109C418.328 385.638 419.569 386.096 429.824 386.684C434.397 386.946 438.643 387.468 439.165 387.926C439.884 388.383 440.929 392.828 442.496 401.39C445.762 419.69 446.024 420.278 450.596 421.651C452.621 422.239 452.686 422.239 452.295 420.148C450.923 412.239 447.526 388.645 447.722 388.383C447.918 388.253 452.033 388.122 456.998 388.057C463.66 387.926 466.926 387.599 469.474 386.749C471.303 386.096 472.871 385.377 472.805 385.181C472.805 384.919 472.152 383.547 471.368 382.109L469.931 379.495L458.369 379.299C447.134 379.168 446.742 379.103 445.828 377.665C445.305 376.88 444.717 375.181 444.456 373.939C443.999 371.586 443.019 370.018 442.17 370.018C441.909 370.018 440.929 370.802 439.949 371.717Z" fill="#1E1E1E"/>
<path d="M146.007 374.593C138.364 377.338 132.224 383.155 127.913 391.717C124.255 398.971 124.124 400.867 126.672 405.965C136.339 425.049 144.439 432.631 156.066 433.285C162.337 433.611 166.583 432.696 170.241 430.147C171.743 429.036 173.311 428.187 173.833 428.187C175.924 428.187 181.476 424.853 183.762 422.239C187.159 418.383 189.118 413.873 190.751 406.553C193.299 395.05 191.731 389.037 184.676 382.828C177.818 376.88 169.783 374.07 157.372 373.547C150.84 373.286 149.338 373.416 146.007 374.593ZM162.533 381.848C171.286 383.22 173.441 384.201 178.275 388.71C183.501 393.677 184.48 395.965 183.893 401.324C182.652 411.912 180.039 417.01 174.682 419.429C172.723 420.278 169.718 421.978 168.02 423.219C163.382 426.553 159.724 427.272 155.021 425.899C146.137 423.285 143.525 420.736 134.053 404.788C131.048 399.821 132.747 393.939 139.083 387.599C145.027 381.586 151.428 380.018 162.533 381.848Z" fill="#1E1E1E"/>
<path d="M784.319 374.397C782.294 376.75 781.771 378.645 781.379 385.9C780.791 397.664 782.947 407.991 786.736 411.586C789.61 414.265 798.624 418.644 804.372 420.082C810.839 421.716 823.772 421.781 826.777 420.148C828.867 418.971 829.586 416.945 828.149 416.03C827.692 415.769 823.642 415.05 819.135 414.396C806.724 412.566 797.644 410.54 795.358 408.971C792.941 407.337 790.655 404.069 789.61 400.802C789.152 399.494 788.63 392.828 788.434 386.031C788.042 374.135 787.977 373.613 786.67 373.416C785.952 373.286 784.907 373.743 784.319 374.397Z" fill="#1E1E1E"/>
<path d="M103.875 377.272C102.764 380.54 103.026 385.508 104.789 394.2C105.704 398.645 106.292 402.37 106.096 402.566C105.573 403.154 81.5353 405.246 75.5912 405.311C68.2753 405.311 68.0793 405.05 67.5567 395.181C66.9688 384.854 66.7729 383.808 64.8786 382.959C63.5722 382.305 63.1149 382.436 62.3311 383.481C60.1755 386.357 59.8489 389.56 60.9594 397.795C61.5472 402.109 62.4617 410.017 62.9843 415.442C64.2254 427.271 65.7931 436.683 66.7076 437.794C67.0995 438.317 68.8631 438.644 70.8228 438.644C74.2194 438.644 74.3501 438.578 74.742 436.618C75.1992 434.657 74.742 433.873 72.913 433.219C72.3905 433.088 69.9736 418.775 69.843 415.703C69.843 414.788 71.4106 414.592 81.1434 414.265C87.2835 414.004 95.6446 413.612 99.5638 413.416C108.578 412.893 108.578 412.893 109.623 420.932C110.93 431.062 112.693 434.396 115.502 431.847C118.441 429.232 118.376 427.141 115.175 408.579C113.542 399.037 111.648 389.364 110.93 387.076C110.276 384.789 109.688 381.651 109.688 380.148C109.688 377.926 109.362 377.076 108.251 376.292C106.031 374.723 104.659 374.985 103.875 377.272Z" fill="#1E1E1E"/>
<path d="M896.801 376.749C894.123 377.599 891.052 378.776 890.073 379.495C887.656 381.063 884.39 386.749 884.39 389.429C884.39 392.109 885.566 393.154 891.314 395.965C896.605 398.448 901.112 402.174 905.162 407.468C909.799 413.481 908.689 416.487 901.569 417.402C898.695 417.794 897.78 418.252 895.821 420.474C893.6 422.892 893.535 423.088 894.645 424.003C897.911 426.422 909.538 424.134 912.674 420.343C914.568 418.187 916.723 410.67 916.201 408.448C915.548 405.899 909.081 398.383 904.247 394.527C901.765 392.501 898.042 390.279 895.952 389.494C893.861 388.71 892.424 387.926 892.685 387.73C893.012 387.534 893.796 386.488 894.384 385.507C895.037 384.462 896.866 383.089 898.434 382.436C901.438 381.128 903.594 378.645 903.202 376.815C902.875 375.181 902.222 375.181 896.801 376.749Z" fill="#1E1E1E"/>
<path d="M40.1221 378.514C36.5295 378.776 27.5806 379.233 20.1994 379.495C5.11034 380.018 3.34669 380.475 1.51771 384.266C-0.703183 389.037 1.64836 389.691 14.9084 387.926C23.4001 386.815 23.6614 386.815 24.5105 387.991C25.0331 388.71 25.425 390.279 25.425 391.586C25.425 394.266 31.6305 424.984 32.6103 427.337C33.1328 428.644 33.7207 428.84 36.5295 428.84C39.4036 428.84 39.8609 428.709 39.5343 427.664C39.0117 425.964 31.9571 389.56 31.9571 388.645C31.9571 388.057 34.2433 387.73 40.3181 387.534C46.8502 387.338 49.1364 387.076 50.4428 386.161C52.3371 384.919 53.1862 382.632 52.533 380.606C52.2064 379.364 48.9404 377.73 47.3727 377.991C46.9808 377.991 43.7148 378.253 40.1221 378.514Z" fill="#1E1E1E"/>
<path d="M248.364 379.952C248.103 380.41 247.841 385.181 247.776 390.605C247.711 406.161 245.751 410.605 237.978 412.893C235.757 413.612 231.969 414.069 228.899 414.069C221.779 414.134 218.382 412.435 214.397 407.01C209.237 400.148 207.016 394.004 206.036 384.2C205.579 380.148 205.187 379.821 203.489 381.717C199.831 385.704 203.032 400.475 209.694 410.344C214.724 417.925 218.447 420.343 226.286 421.324C233.667 422.239 246.666 417.402 249.866 412.566C252.545 408.448 253.524 402.239 253.263 391.063C253.067 382.043 252.936 380.932 251.826 380.083C250.258 378.972 249.083 378.906 248.364 379.952Z" fill="#1E1E1E"/>
<path d="M841.278 381.782C840.037 382.043 838.535 382.958 837.947 383.677C835.465 386.749 835.857 403.023 838.665 414.788C839.384 417.664 840.037 421.193 840.102 422.631L840.298 425.245L849.443 425.311L858.588 425.376L871.26 429.363C886.807 434.33 890.138 434.591 887.852 430.735C886.48 428.448 873.677 422.239 866.361 420.278C863.553 419.559 857.674 418.775 853.428 418.513L845.655 418.056L844.74 413.808C844.283 411.455 844.022 409.167 844.218 408.71C844.479 408.056 845.785 407.925 849.966 408.317C854.473 408.644 855.845 408.514 857.804 407.599C860.417 406.422 860.744 405.572 859.372 403.742C858.719 402.827 857.02 402.501 850.75 402.043C846.439 401.716 842.781 401.455 842.65 401.455C842.258 401.389 843.107 390.344 843.564 389.625C843.826 389.233 847.68 388.971 852.644 388.971C862.115 388.971 863.357 388.514 862.573 385.442C861.985 382.958 857.739 381.586 850.096 381.39C846.504 381.259 842.519 381.455 841.278 381.782Z" fill="#1E1E1E"/>
</svg>
