<svg width="203" height="227" viewBox="0 0 203 227" fill="none" xmlns="http://www.w3.org/2000/svg">
<path d="M67.809 54.1722L69.5822 45.2984L74.3952 29.0719L83.5146 15.1274L102.767 6H159.003L174.455 11.3243L190.16 22.48L197 42.2559L195.48 81.5542L167.109 108.936L134.684 118.317L109.099 120.092L89.5942 112.739L76.6751 102.344L71.6088 91.6958L67.809 79.2724V54.1722Z" fill="#00B6E7"/>
<path d="M9.2931 146.46L8.53316 142.657L12.5862 132.262L18.9191 126.177L26.158 126.938H47.9908L53.9899 128.996L60.0874 133.31L62.7427 140.956L62.1526 156.152L58.943 164.191L51.5968 169.278L38.5496 170.367L28.6166 171.053L21.044 168.21L16.0283 164.191L14.0614 160.073L12.5862 155.269L9.2931 151.024V146.46Z" fill="#00B6E7"/>
<path d="M6.40483 206.394L6 204.331L8.1591 198.693L11.5327 195.393L15.3889 195.805H27.0195L30.2153 196.922L33.4635 199.261L34.878 203.409L34.5636 211.65L32.8538 216.01L28.9405 218.77L21.7056 221L16.6987 219.732L12.6646 218.19L9.99275 216.01L8.94495 213.777L8.1591 211.172L6.40483 208.869V206.394Z" fill="#00B6E7"/>
<path d="M67.809 54.1722L69.5822 45.2984L74.3952 29.0719L83.5146 15.1274L102.767 6H159.003L174.455 11.3243L190.16 22.48L197 42.2559L195.48 81.5542L167.109 108.936L134.684 118.317L109.099 120.092L89.5942 112.739L76.6751 102.344L71.6088 91.6958L67.809 79.2724V54.1722Z" stroke="#1E1E1E" stroke-width="11"/>
<path d="M9.2931 146.46L8.53316 142.657L12.5862 132.262L18.9191 126.177L26.158 126.938H47.9908L53.9899 128.996L60.0874 133.31L62.7427 140.956L62.1526 156.152L58.943 164.191L51.5968 169.278L38.5496 170.367L28.6166 171.053L21.044 168.21L16.0283 164.191L14.0614 160.073L12.5862 155.269L9.2931 151.024V146.46Z" stroke="#1E1E1E" stroke-width="11"/>
<path d="M6.40483 206.394L6 204.331L8.1591 198.693L11.5327 195.393L15.3889 195.805H27.0195L30.2153 196.922L33.4635 199.261L34.878 203.409L34.5636 211.65L32.8538 216.01L28.9405 218.77L21.7056 221L16.6987 219.732L12.6646 218.19L9.99275 216.01L8.94495 213.777L8.1591 211.172L6.40483 208.869V206.394Z" stroke="#1E1E1E" stroke-width="11"/>
</svg>
